<svg width="1866" height="1224" viewBox="0 0 1866 1224" fill="none" xmlns="http://www.w3.org/2000/svg">
<path opacity="0.05" fill-rule="evenodd" clip-rule="evenodd" d="M1707.71 157.784C1708.4 157.784 1709.05 157.776 1709.68 157.768C1711.1 157.751 1712.4 157.735 1713.7 157.814C1714.91 157.887 1715.58 157.427 1716.21 156.451C1720.91 149.22 1736.79 125.137 1740.08 120.15C1747.52 131.451 1754.91 142.674 1762.37 153.99L1762.41 154.053C1766.07 159.617 1769.75 165.203 1773.46 170.831C1773.5 170.201 1773.53 141.04 1773.56 115.074L1773.56 115.015C1773.57 105.63 1773.58 96.6661 1773.59 89.6207C1773.59 88.3205 1773.21 88 1771.94 88C1753.51 88.0266 1735.08 88.0282 1716.64 88.0299C1709.55 88.0305 1702.46 88.0311 1695.38 88.0332C1695.27 88.0332 1695.16 88.029 1695.05 88.0246C1694.6 88.0082 1694.1 87.9897 1693.97 88.1879C1693.58 88.7939 1693.11 89.363 1692.64 89.9326C1691.45 91.3814 1690.26 92.8337 1690.26 94.9066C1690.26 102.597 1690.26 110.287 1690.26 117.977V117.977C1690.26 135.064 1690.26 152.151 1690.22 169.24C1690.22 170.787 1690.63 171.144 1692.15 171.144C1708.47 171.121 1741.8 171.155 1757.41 171.17C1761.75 171.174 1764.72 171.177 1765.57 171.177L1761.82 165.483L1761.73 165.345C1754.45 154.302 1747.31 143.469 1740.08 132.497L1736.07 138.577C1731.86 144.972 1727.69 151.297 1723.41 157.788H1725.5C1726.54 157.788 1727.58 157.787 1728.62 157.787L1728.67 157.787C1731.85 157.786 1735.02 157.784 1738.2 157.795C1738.33 157.796 1738.46 157.788 1738.59 157.781L1738.59 157.781C1739.13 157.75 1739.69 157.719 1740.08 158.23C1741.23 159.72 1742.37 161.219 1743.58 162.802C1744.15 163.559 1744.75 164.336 1745.36 165.14C1733.88 165.375 1722.58 165.355 1711.24 165.334C1705.53 165.324 1699.8 165.313 1694.04 165.335C1699.49 157.055 1704.9 148.842 1710.28 140.659L1710.33 140.587C1717.55 129.621 1724.73 118.709 1731.93 107.762C1732.31 108.33 1732.67 108.883 1733.03 109.424L1733.03 109.425L1733.03 109.425C1733.88 110.724 1734.68 111.951 1735.54 113.136C1736.16 113.991 1735.99 114.61 1735.47 115.405C1727.2 127.966 1708.81 156.064 1707.71 157.784ZM1682.41 105.081L1682.41 105.081L1682.41 105.081C1681.51 106.422 1680.69 107.668 1680.04 108.606C1679.43 109.501 1679.16 110.392 1679.16 111.486C1679.2 120.905 1679.22 159.445 1679.15 169.291C1679.14 170.776 1679.58 171.155 1680.99 171.071C1682.88 170.956 1684.8 170.916 1686.69 171.078C1688.43 171.225 1688.78 170.592 1688.77 168.953C1688.72 146.492 1688.73 101.583 1688.73 96.7217V96.7192L1688.73 96.299C1688.15 96.4417 1685.01 101.162 1682.41 105.081ZM1677.3 113.079C1677.36 113.099 1677.43 113.118 1677.5 113.136C1677.5 113.168 1677.5 113.325 1677.5 113.596C1677.49 117.967 1677.48 152.019 1677.53 169.067C1677.54 170.651 1677.2 171.218 1675.53 171.089C1673.66 170.946 1671.77 170.998 1669.89 171.05C1669.69 171.056 1669.48 171.062 1669.28 171.067C1668.35 171.093 1668 170.831 1668 169.84C1668.02 158.741 1668.02 147.644 1668.02 136.546C1668.02 133.519 1668.02 130.492 1668.02 127.465C1668.02 126.972 1668.04 126.489 1668.33 126.058C1671.26 121.712 1674.18 117.369 1677.1 113.022C1677.17 113.041 1677.23 113.06 1677.3 113.079Z" fill="#561D7B"/>
<path opacity="0.05" fill-rule="evenodd" clip-rule="evenodd" d="M833.206 201.327C833.711 201.327 834.192 201.321 834.657 201.315C835.698 201.302 836.656 201.29 837.609 201.348C838.501 201.402 838.994 201.064 839.46 200.346C842.917 195.028 854.596 177.315 857.015 173.646C862.495 181.967 867.937 190.231 873.425 198.563L881.566 210.923C881.596 210.459 881.62 189.012 881.642 169.913C881.649 162.995 881.657 156.385 881.664 151.192C881.664 150.236 881.382 150 880.45 150C866.893 150.02 853.335 150.021 839.778 150.022C834.564 150.022 829.349 150.023 824.135 150.024C824.061 150.024 823.978 150.021 823.892 150.018C823.567 150.006 823.199 149.992 823.102 150.138C822.813 150.584 822.469 151.002 822.125 151.421C821.251 152.487 820.374 153.555 820.374 155.08C820.371 160.736 820.371 166.392 820.371 172.047V172.048V172.05C820.371 184.618 820.37 197.184 820.344 209.752C820.341 210.89 820.645 211.153 821.761 211.153C833.763 211.136 858.283 211.161 869.761 211.172L869.777 211.172C872.962 211.175 875.14 211.177 875.763 211.177L873.013 207.005L873.007 206.997C867.629 198.836 862.355 190.833 857.015 182.728L854.07 187.196L854.031 187.255C850.944 191.94 847.889 196.574 844.754 201.329H846.291C847.069 201.329 847.848 201.329 848.626 201.329H848.629C850.963 201.328 853.297 201.327 855.631 201.335C855.726 201.335 855.823 201.33 855.921 201.324C856.32 201.302 856.729 201.279 857.018 201.654C857.862 202.75 858.701 203.852 859.587 205.016L859.588 205.017L859.588 205.017C860.012 205.574 860.447 206.145 860.898 206.737C852.457 206.91 844.145 206.895 835.802 206.88H835.802C831.6 206.872 827.391 206.864 823.154 206.881C827.144 200.818 831.102 194.805 835.045 188.813L835.14 188.669C840.447 180.607 845.728 172.584 851.024 164.535C851.302 164.953 851.568 165.36 851.828 165.758L851.828 165.758C852.452 166.713 853.041 167.616 853.674 168.488C854.129 169.116 854.008 169.572 853.623 170.157C847.54 179.395 834.019 200.061 833.206 201.327ZM819.249 156.104C818.821 156.209 816.512 159.681 814.596 162.563C813.94 163.549 813.331 164.466 812.858 165.156C812.405 165.814 812.205 166.469 812.21 167.274C812.237 174.202 812.251 202.548 812.199 209.79C812.191 210.882 812.519 211.161 813.554 211.099C814.947 211.015 816.358 210.985 817.746 211.104C819.025 211.213 819.282 210.747 819.279 209.541C819.241 193.02 819.248 159.983 819.249 156.414V156.413L819.249 156.104ZM810.839 168.446C810.888 168.46 810.936 168.474 810.985 168.488C810.985 168.511 810.985 168.627 810.985 168.826C810.984 172.04 810.972 197.087 811.012 209.625C811.015 210.79 810.766 211.207 809.541 211.112C808.163 211.007 806.774 211.046 805.388 211.084C805.24 211.088 805.091 211.092 804.943 211.096C804.257 211.115 803.997 210.923 804 210.194C804.017 202.03 804.016 193.869 804.014 185.706C804.014 183.48 804.014 181.253 804.014 179.027C804.014 178.664 804.03 178.309 804.244 177.992C806.395 174.795 808.544 171.601 810.693 168.404C810.741 168.417 810.79 168.432 810.839 168.446Z" fill="#561D7B"/>
<path opacity="0.05" fill-rule="evenodd" clip-rule="evenodd" d="M73.7092 69.7842C74.3953 69.7842 75.0499 69.7761 75.6821 69.7683C77.0967 69.7508 78.3996 69.7347 79.6956 69.8136C80.9076 69.8873 81.5781 69.4269 82.2117 68.4507C86.9124 61.22 102.79 37.1372 106.08 32.1497C113.522 43.4505 120.914 54.6737 128.367 65.9895L128.409 66.0535C132.074 71.6168 135.753 77.2026 139.46 82.8312C139.501 82.2011 139.533 53.0405 139.562 27.0735L139.562 27.0147C139.573 17.6302 139.583 8.66608 139.593 1.62075C139.593 0.320466 139.21 0 137.942 0C119.509 0.0266032 101.077 0.0282289 82.6439 0.0298547C75.5544 0.0304799 68.4649 0.0311052 61.3754 0.0331516C61.2746 0.0331516 61.1618 0.0289721 61.0451 0.0246427C60.603 0.00824822 60.1029 -0.0102935 59.9718 0.187859C59.5778 0.793886 59.1107 1.36295 58.6432 1.93256C57.4541 3.38137 56.2621 4.83368 56.2621 6.90659C56.2586 14.5969 56.2584 22.2868 56.2582 29.9767V29.9767C56.2576 47.0643 56.2571 64.1512 56.2216 81.2399C56.2179 82.787 56.6305 83.1443 58.1483 83.1443C74.4667 83.1212 107.804 83.1545 123.41 83.1701C127.752 83.1745 130.721 83.1774 131.569 83.1774L127.816 77.4828L127.725 77.3455C120.447 66.3017 113.307 55.4686 106.08 44.4968L102.073 50.5765C97.858 56.9718 93.6894 63.2968 89.4101 69.7879H91.4989C92.5403 69.7879 93.5817 69.7874 94.6231 69.787L94.6743 69.7869C97.8487 69.7856 101.023 69.7842 104.197 69.7952C104.326 69.796 104.459 69.7885 104.593 69.7809L104.593 69.7809C105.134 69.7503 105.691 69.7188 106.084 70.2299C107.233 71.7201 108.373 73.2187 109.578 74.8022L109.589 74.816C110.161 75.5688 110.749 76.3408 111.359 77.1402C99.883 77.3753 88.5814 77.3547 77.2384 77.334C71.5259 77.3236 65.8028 77.3132 60.0418 77.3354C65.4914 69.055 70.8974 60.8417 76.2835 52.6586L76.3307 52.5869C83.5485 41.621 90.7308 30.709 97.9347 19.7621C98.3118 20.3298 98.6733 20.8832 99.0268 21.4244L99.0273 21.4252L99.0274 21.4253C99.8753 22.7235 100.677 23.951 101.538 25.1363C102.157 25.9909 101.991 26.6097 101.468 27.4053C93.1972 39.9661 74.8144 68.064 73.7092 69.7842ZM48.4059 17.0814L48.4059 17.0814L48.4057 17.0817C47.5146 18.4217 46.6858 19.668 46.0428 20.6056C45.4276 21.5007 45.155 22.3921 45.1624 23.4861C45.1992 32.9048 45.2176 71.4455 45.1476 81.2915C45.1366 82.7759 45.5823 83.1553 46.9896 83.0706C48.8831 82.9564 50.8025 82.9159 52.6887 83.078C54.4275 83.2253 54.7774 82.5918 54.7738 80.9526C54.7212 58.4923 54.732 13.5826 54.7331 8.72174V8.71921L54.7332 8.29897C54.1512 8.4417 51.0121 13.1622 48.4059 17.0814ZM43.2983 25.0792C43.3646 25.0986 43.4309 25.1179 43.4972 25.1363C43.4972 25.1679 43.4971 25.3248 43.497 25.5959C43.4949 29.9665 43.4785 64.0194 43.534 81.0668C43.5377 82.6507 43.1988 83.218 41.5337 83.089C39.6601 82.946 37.7716 82.9983 35.887 83.0504C35.6853 83.056 35.4836 83.0616 35.282 83.0669C34.35 83.0927 33.9963 82.8312 34 81.8403C34.0232 70.7412 34.0213 59.6444 34.0195 48.5462C34.019 45.5193 34.0184 42.4923 34.0184 39.4652C34.0184 38.9716 34.0406 38.4891 34.3316 38.0581C37.2566 33.7115 40.178 29.3687 43.0993 25.0221C43.1657 25.0405 43.232 25.0599 43.2983 25.0792Z" fill="#561D7B"/>
<path opacity="0.05" fill-rule="evenodd" clip-rule="evenodd" d="M1178.9 102.202C1179.79 102.202 1180.65 102.191 1181.47 102.181C1183.32 102.158 1185.03 102.137 1186.72 102.24C1188.3 102.336 1189.18 101.735 1190.01 100.459C1196.15 91.009 1216.9 59.5349 1221.2 53.0167C1230.95 67.8224 1240.64 82.5261 1250.4 97.3521L1250.4 97.3541C1255.19 104.616 1259.99 111.906 1264.83 119.253C1264.88 118.429 1264.92 80.3241 1264.96 46.3894L1264.96 46.2013C1264.97 33.9745 1264.99 22.2996 1265 13.1182C1265 11.4188 1264.5 11 1262.84 11C1238.75 11.0348 1214.66 11.0369 1190.57 11.039C1181.31 11.0398 1172.04 11.0407 1162.78 11.0433C1162.65 11.0433 1162.5 11.0379 1162.35 11.0322C1161.77 11.0108 1161.11 10.9865 1160.94 11.2455C1160.43 12.0375 1159.82 12.7813 1159.21 13.5257C1157.65 15.4191 1156.09 17.3172 1156.09 20.0263C1156.09 30.0762 1156.09 40.1256 1156.09 50.1749V50.1749C1156.09 72.5075 1156.09 94.8392 1156.04 117.173C1156.04 119.195 1156.58 119.662 1158.56 119.662C1179.89 119.632 1223.45 119.675 1243.85 119.696H1243.85C1249.52 119.701 1253.41 119.705 1254.51 119.705L1249.6 112.244C1240.05 97.7551 1230.68 83.5455 1221.2 69.1533L1215.95 77.119C1210.45 85.4702 1205 93.7299 1199.42 102.206H1202.15C1203.53 102.206 1204.91 102.206 1206.3 102.205C1210.44 102.203 1214.59 102.202 1218.74 102.216C1218.91 102.217 1219.08 102.207 1219.26 102.197C1219.97 102.157 1220.69 102.116 1221.21 102.784C1222.71 104.731 1224.2 106.688 1225.77 108.756L1225.77 108.759L1225.78 108.763C1226.53 109.752 1227.3 110.765 1228.1 111.815C1213.1 112.122 1198.33 112.096 1183.51 112.069H1183.51C1176.04 112.055 1168.56 112.041 1161.03 112.07C1168.18 101.211 1175.27 90.4398 1182.33 79.7082L1182.34 79.7007C1191.77 65.3778 1201.15 51.1253 1210.56 36.8272C1211.05 37.5696 1211.52 38.2933 1211.98 39.0009C1213.09 40.6975 1214.14 42.3017 1215.27 43.8508C1216.07 44.9677 1215.86 45.7765 1215.17 46.8163C1204.37 63.2321 1180.34 99.9534 1178.9 102.202ZM1145.83 33.3238L1145.83 33.3239C1144.66 35.0753 1143.58 36.7042 1142.74 37.9296C1141.93 39.0994 1141.58 40.2644 1141.59 41.6942C1141.64 54.0036 1141.66 104.373 1141.57 117.241C1141.55 119.181 1142.14 119.676 1143.98 119.566C1146.45 119.416 1148.96 119.364 1151.42 119.575C1153.7 119.768 1154.15 118.94 1154.15 116.798C1154.08 87.4464 1154.09 28.7606 1154.1 22.4V22.3952L1154.1 21.846C1153.34 22.0325 1149.23 28.2019 1145.83 33.3238ZM1139.15 43.7762C1139.24 43.8015 1139.33 43.8268 1139.41 43.8509C1139.41 43.8922 1139.41 44.0972 1139.41 44.4514C1139.41 50.1634 1139.39 94.6675 1139.46 116.947C1139.46 119.017 1139.02 119.758 1136.85 119.59C1134.4 119.403 1131.93 119.471 1129.47 119.539C1129.2 119.547 1128.94 119.554 1128.68 119.561C1127.46 119.595 1127 119.253 1127 117.958C1127.03 103.452 1127.03 88.9497 1127.03 74.4454C1127.02 70.4896 1127.02 66.5336 1127.02 62.5774C1127.02 61.9323 1127.05 61.3017 1127.43 60.7384C1131.26 55.0579 1135.07 49.3822 1138.89 43.7016C1138.98 43.7257 1139.07 43.751 1139.15 43.7762Z" fill="#561D7B"/>
<path opacity="0.05" fill-rule="evenodd" clip-rule="evenodd" d="M1476.45 690.239H1476.45C1481.93 690.171 1486.98 690.109 1492 690.414C1496.69 690.7 1499.29 688.916 1501.74 685.135C1519.95 657.128 1581.45 563.846 1594.19 544.528C1622.93 588.171 1651.48 631.516 1680.27 675.216L1680.81 676.044L1681.56 677.182C1695.46 698.29 1709.42 719.484 1723.49 740.836C1723.64 738.397 1723.77 625.517 1723.88 524.961L1723.88 524.904C1723.92 488.458 1723.96 453.634 1724 426.278C1724 421.241 1722.52 420 1717.61 420C1646.21 420.103 1574.81 420.109 1503.42 420.116C1475.96 420.118 1448.5 420.12 1421.04 420.128C1420.64 420.128 1420.21 420.112 1419.76 420.095C1418.04 420.032 1416.11 419.96 1415.6 420.728C1414.07 423.075 1412.26 425.279 1410.45 427.486C1405.85 433.097 1401.23 438.723 1401.23 446.752C1401.22 476.538 1401.22 506.323 1401.21 536.107V536.107C1401.21 602.295 1401.21 668.48 1401.07 734.673C1401.06 740.665 1402.66 742.049 1408.54 742.049C1471.74 741.96 1600.84 742.089 1661.3 742.149H1661.32L1661.72 742.15C1678.32 742.166 1689.66 742.177 1692.92 742.177L1678.35 720.061C1650.05 677.121 1622.29 635.007 1594.19 592.353L1578.65 615.937L1578.58 616.047C1562.28 640.769 1546.17 665.221 1529.62 690.315H1537.71C1541.81 690.315 1545.91 690.313 1550.01 690.311C1562.31 690.306 1574.6 690.3 1586.9 690.343C1587.4 690.346 1587.91 690.317 1588.43 690.288L1588.43 690.288C1590.53 690.169 1592.68 690.047 1594.21 692.027C1598.66 697.799 1603.07 703.603 1607.74 709.736C1609.97 712.669 1612.26 715.677 1614.64 718.793C1570.19 719.704 1526.42 719.624 1482.48 719.544H1482.48H1482.47C1460.35 719.503 1438.18 719.463 1415.87 719.549C1437.04 687.376 1458.05 655.464 1478.98 623.669L1479.17 623.378C1507.06 581.007 1534.81 538.844 1562.64 496.546C1564.1 498.746 1565.51 500.891 1566.88 502.988C1570.16 508.016 1573.27 512.771 1576.6 517.362C1579 520.672 1578.35 523.069 1576.33 526.151C1544.29 574.804 1473.09 683.637 1468.81 690.3C1471.47 690.3 1474 690.269 1476.45 690.239ZM1370.8 486.163L1370.8 486.163L1370.8 486.163C1367.35 491.354 1364.14 496.181 1361.65 499.813C1359.26 503.28 1358.21 506.733 1358.24 510.97C1358.38 547.453 1358.45 696.735 1358.18 734.872C1358.14 740.622 1359.86 742.092 1365.31 741.764C1372.65 741.321 1380.08 741.164 1387.39 741.792C1394.12 742.363 1395.48 739.909 1395.46 733.56C1395.26 646.551 1395.3 472.565 1395.31 453.775V453.773L1395.31 452.145C1393.05 452.698 1380.89 470.982 1370.8 486.163ZM1351.02 517.141C1351.27 517.216 1351.53 517.291 1351.79 517.362C1351.79 517.485 1351.79 518.093 1351.79 519.142C1351.78 536.072 1351.71 667.971 1351.93 734.002C1351.94 740.137 1350.63 742.334 1344.18 741.835C1336.92 741.281 1329.61 741.483 1322.31 741.685C1321.53 741.707 1320.75 741.729 1319.97 741.749C1316.36 741.849 1314.99 740.836 1315 736.998C1315.09 694.007 1315.08 651.025 1315.08 608.038C1315.07 596.313 1315.07 584.589 1315.07 572.863C1315.07 570.952 1315.16 569.083 1316.28 567.413C1327.61 550.577 1338.93 533.756 1350.25 516.92C1350.5 516.991 1350.76 517.066 1351.02 517.141Z" fill="#561D7B"/>
<path opacity="0.05" fill-rule="evenodd" clip-rule="evenodd" d="M997.709 856.784C998.395 856.784 999.05 856.776 999.682 856.768C1001.1 856.751 1002.4 856.735 1003.7 856.814C1004.91 856.887 1005.58 856.427 1006.21 855.451C1010.91 848.22 1026.79 824.137 1030.08 819.15C1037.52 830.451 1044.91 841.674 1052.37 852.99L1052.41 853.053C1056.07 858.617 1059.75 864.203 1063.46 869.831C1063.5 869.201 1063.53 840.04 1063.56 814.074L1063.56 814.015C1063.57 804.63 1063.58 795.666 1063.59 788.621C1063.59 787.32 1063.21 787 1061.94 787C1043.51 787.027 1025.08 787.028 1006.64 787.03C999.554 787.03 992.465 787.031 985.375 787.033C985.275 787.033 985.162 787.029 985.045 787.025C984.603 787.008 984.103 786.99 983.972 787.188C983.578 787.794 983.111 788.363 982.643 788.933C981.454 790.381 980.262 791.834 980.262 793.907C980.259 801.597 980.258 809.287 980.258 816.977V816.977C980.258 834.064 980.257 851.151 980.222 868.24C980.218 869.787 980.63 870.144 982.148 870.144C998.467 870.121 1031.8 870.155 1047.41 870.17C1051.75 870.174 1054.72 870.177 1055.57 870.177L1051.82 864.483L1051.73 864.345C1044.45 853.302 1037.31 842.469 1030.08 831.497L1026.07 837.577C1021.86 843.972 1017.69 850.297 1013.41 856.788H1015.5C1016.54 856.788 1017.58 856.787 1018.62 856.787L1018.67 856.787C1021.85 856.786 1025.02 856.784 1028.2 856.795C1028.33 856.796 1028.46 856.788 1028.59 856.781L1028.59 856.781C1029.13 856.75 1029.69 856.719 1030.08 857.23C1031.23 858.72 1032.37 860.219 1033.58 861.802L1033.59 861.816C1034.16 862.569 1034.75 863.341 1035.36 864.14C1023.88 864.375 1012.58 864.355 1001.24 864.334C995.526 864.324 989.803 864.313 984.042 864.335C989.491 856.055 994.897 847.842 1000.28 839.659L1000.33 839.587C1007.55 828.621 1014.73 817.709 1021.93 806.762C1022.31 807.33 1022.67 807.883 1023.03 808.424L1023.03 808.425L1023.03 808.425C1023.88 809.724 1024.68 810.951 1025.54 812.136C1026.16 812.991 1025.99 813.61 1025.47 814.405C1017.2 826.966 998.814 855.064 997.709 856.784ZM972.406 804.081L972.406 804.081L972.406 804.082C971.515 805.422 970.686 806.668 970.043 807.606C969.428 808.501 969.155 809.392 969.162 810.486C969.199 819.905 969.218 858.445 969.148 868.291C969.137 869.776 969.582 870.155 970.99 870.071C972.883 869.956 974.802 869.916 976.689 870.078C978.427 870.225 978.777 869.592 978.774 867.953C978.721 845.492 978.732 800.583 978.733 795.722V795.719L978.733 795.299C978.151 795.442 975.012 800.162 972.406 804.081ZM967.298 812.079C967.365 812.099 967.431 812.118 967.497 812.136C967.497 812.168 967.497 812.325 967.497 812.596C967.495 816.967 967.479 851.019 967.534 868.067C967.538 869.651 967.199 870.218 965.534 870.089C963.66 869.946 961.772 869.998 959.887 870.05C959.685 870.056 959.484 870.062 959.282 870.067C958.35 870.093 957.996 869.831 958 868.84C958.023 857.741 958.021 846.644 958.019 835.546C958.019 832.519 958.018 829.492 958.018 826.465C958.018 825.972 958.041 825.489 958.332 825.058C961.257 820.712 964.178 816.369 967.099 812.022C967.166 812.041 967.232 812.06 967.298 812.079Z" fill="#561D7B"/>
<path opacity="0.05" fill-rule="evenodd" clip-rule="evenodd" d="M142.531 782.263H142.534H142.535C150.63 782.163 158.086 782.071 165.502 782.523C172.438 782.945 176.275 780.31 179.901 774.723C206.802 733.344 297.666 595.525 316.492 566.983C359.061 631.626 401.346 695.825 443.98 760.554L444.253 760.968C465.231 792.818 486.294 824.796 507.517 857.018C507.749 853.413 507.935 686.563 508.102 537.971V537.921C508.162 484.099 508.219 432.674 508.276 392.275C508.276 384.834 506.083 383 498.831 383C393.345 383.152 287.86 383.162 182.375 383.171C141.804 383.174 101.232 383.178 60.6611 383.19C60.0842 383.19 59.4392 383.166 58.771 383.141C56.2409 383.047 53.3794 382.941 52.6289 384.075C50.3741 387.543 47.7012 390.8 45.0258 394.059C38.2207 402.351 31.3992 410.662 31.3992 422.524C31.3796 466.531 31.3783 510.535 31.3769 554.538V554.538C31.3739 652.329 31.3709 750.115 31.1673 847.912C31.1462 856.766 33.5074 858.81 42.1933 858.81C135.579 858.678 326.359 858.869 415.665 858.958C440.512 858.983 457.504 859 462.359 859L440.78 826.258C398.984 762.839 357.991 700.64 316.492 637.642C308.779 649.344 301.122 660.964 293.49 672.542L293.026 673.247C269.088 709.569 245.404 745.504 221.096 782.375H233.049C239.037 782.375 245.025 782.373 251.013 782.37L251.22 782.37C269.386 782.362 287.553 782.354 305.719 782.418C306.458 782.422 307.218 782.379 307.983 782.336C311.08 782.16 314.264 781.98 316.513 784.905C323.088 793.432 329.614 802.008 336.51 811.069L336.512 811.071C339.809 815.404 343.191 819.848 346.703 824.45C281.03 825.796 216.354 825.678 151.443 825.56C118.751 825.5 85.9989 825.441 53.0294 825.568C84.2696 778.1 115.259 731.018 146.135 684.108L146.28 683.888L146.319 683.828C187.6 621.111 228.678 558.701 269.88 496.092C272.039 499.343 274.108 502.512 276.132 505.61C280.985 513.039 285.573 520.064 290.498 526.848C294.04 531.738 293.091 535.28 290.097 539.833C242.768 611.714 137.569 772.51 131.244 782.354C135.17 782.354 138.914 782.308 142.531 782.263ZM22.6502 430.493C19.3196 431.309 1.3552 458.324 -13.5595 480.752C-18.6594 488.421 -23.4027 495.554 -27.0824 500.92C-30.6031 506.042 -32.1632 511.143 -32.121 517.404C-31.9102 571.305 -31.8048 791.861 -32.2053 848.207C-32.2686 856.702 -29.7177 858.874 -21.6643 858.389C-10.8281 857.735 0.15564 857.503 10.9497 858.431C20.9004 859.274 22.9032 855.648 22.8821 846.268C22.5811 717.712 22.643 460.64 22.6497 432.897L22.6502 430.493ZM-42.7891 526.521C-42.4095 526.632 -42.0299 526.742 -41.6503 526.848C-41.6503 527.029 -41.6507 527.926 -41.6514 529.477C-41.6635 554.49 -41.7571 749.364 -41.4395 846.921C-41.4184 855.986 -43.3579 859.232 -52.887 858.494C-63.6087 857.675 -74.4164 857.975 -85.2013 858.273C-86.3556 858.305 -87.5097 858.337 -88.6633 858.368C-93.997 858.515 -96.0209 857.018 -95.9998 851.348C-95.8673 787.831 -95.878 724.327 -95.8886 660.816C-95.8915 643.494 -95.8944 626.171 -95.8944 608.848C-95.8944 606.023 -95.7679 603.261 -94.1025 600.795C-77.3633 575.921 -60.6452 551.068 -43.9271 526.194C-43.5478 526.3 -43.1684 526.41 -42.7891 526.521Z" fill="#561D7B"/>
<path opacity="0.05" fill-rule="evenodd" clip-rule="evenodd" d="M1407.9 1206.2C1408.79 1206.2 1409.65 1206.19 1410.47 1206.18C1412.32 1206.16 1414.03 1206.14 1415.72 1206.24C1417.3 1206.34 1418.18 1205.73 1419.01 1204.46C1425.15 1195.01 1445.9 1163.53 1450.2 1157.02C1459.95 1171.82 1469.64 1186.53 1479.4 1201.35L1479.4 1201.35C1484.19 1208.62 1488.99 1215.91 1493.83 1223.25C1493.88 1222.43 1493.92 1184.32 1493.96 1150.39L1493.96 1150.2C1493.97 1137.97 1493.99 1126.3 1494 1117.12C1494 1115.42 1493.5 1115 1491.84 1115C1467.75 1115.03 1443.66 1115.04 1419.57 1115.04C1410.31 1115.04 1401.04 1115.04 1391.78 1115.04C1391.65 1115.04 1391.5 1115.04 1391.35 1115.03C1390.77 1115.01 1390.11 1114.99 1389.94 1115.25C1389.43 1116.04 1388.82 1116.78 1388.21 1117.53C1386.65 1119.42 1385.09 1121.32 1385.09 1124.03C1385.09 1134.08 1385.09 1144.13 1385.09 1154.17V1154.17C1385.09 1176.51 1385.09 1198.84 1385.04 1221.17C1385.04 1223.2 1385.58 1223.66 1387.56 1223.66C1408.89 1223.63 1452.45 1223.68 1472.85 1223.7H1472.85C1478.52 1223.7 1482.41 1223.71 1483.51 1223.71L1478.6 1216.24C1469.05 1201.76 1459.68 1187.55 1450.2 1173.15L1444.95 1181.12C1439.45 1189.47 1434 1197.73 1428.42 1206.21H1431.15C1432.53 1206.21 1433.91 1206.21 1435.3 1206.21C1439.44 1206.2 1443.59 1206.2 1447.74 1206.22C1447.91 1206.22 1448.08 1206.21 1448.26 1206.2C1448.97 1206.16 1449.69 1206.12 1450.21 1206.78C1451.71 1208.73 1453.2 1210.69 1454.77 1212.76L1454.77 1212.76L1454.78 1212.76C1455.53 1213.75 1456.3 1214.77 1457.1 1215.82C1442.1 1216.12 1427.33 1216.1 1412.51 1216.07H1412.51C1405.04 1216.05 1397.56 1216.04 1390.03 1216.07C1397.18 1205.21 1404.27 1194.44 1411.33 1183.71L1411.34 1183.7C1420.77 1169.38 1430.15 1155.13 1439.56 1140.83C1440.05 1141.57 1440.52 1142.29 1440.98 1143C1442.09 1144.7 1443.14 1146.3 1444.27 1147.85C1445.07 1148.97 1444.86 1149.78 1444.17 1150.82C1433.37 1167.23 1409.34 1203.95 1407.9 1206.2ZM1374.83 1137.32L1374.83 1137.32C1373.66 1139.08 1372.58 1140.7 1371.74 1141.93C1370.93 1143.1 1370.58 1144.26 1370.59 1145.69C1370.64 1158 1370.66 1208.37 1370.57 1221.24C1370.55 1223.18 1371.14 1223.68 1372.98 1223.57C1375.45 1223.42 1377.96 1223.36 1380.42 1223.58C1382.7 1223.77 1383.15 1222.94 1383.15 1220.8C1383.08 1191.45 1383.09 1132.76 1383.1 1126.4V1126.4L1383.1 1125.85C1382.34 1126.03 1378.23 1132.2 1374.83 1137.32ZM1368.15 1147.78C1368.24 1147.8 1368.33 1147.83 1368.41 1147.85C1368.41 1147.89 1368.41 1148.1 1368.41 1148.45C1368.41 1154.16 1368.39 1198.67 1368.46 1220.95C1368.46 1223.02 1368.02 1223.76 1365.85 1223.59C1363.4 1223.4 1360.93 1223.47 1358.47 1223.54C1358.2 1223.55 1357.94 1223.55 1357.68 1223.56C1356.46 1223.59 1356 1223.25 1356 1221.96C1356.03 1207.45 1356.03 1192.95 1356.03 1178.45C1356.02 1174.49 1356.02 1170.53 1356.02 1166.58C1356.02 1165.93 1356.05 1165.3 1356.43 1164.74C1360.26 1159.06 1364.07 1153.38 1367.89 1147.7C1367.98 1147.73 1368.07 1147.75 1368.15 1147.78Z" fill="#561D7B"/>
<path opacity="0.05" fill-rule="evenodd" clip-rule="evenodd" d="M1818.57 880.166H1818.57C1819.61 880.153 1820.56 880.141 1821.51 880.199C1822.4 880.253 1822.89 879.916 1823.36 879.2C1826.8 873.897 1838.45 856.235 1840.86 852.578C1846.34 860.895 1851.78 869.154 1857.26 877.483L1865.34 889.746C1865.37 889.284 1865.4 867.902 1865.42 848.86C1865.42 841.96 1865.43 835.367 1865.44 830.189C1865.44 829.235 1865.16 829 1864.23 829C1850.71 829.02 1837.19 829.021 1823.67 829.022C1818.47 829.022 1813.28 829.023 1808.08 829.024C1808 829.024 1807.92 829.021 1807.83 829.018C1807.51 829.006 1807.14 828.992 1807.05 829.138C1806.76 829.582 1806.42 830 1806.07 830.417C1805.2 831.48 1804.33 832.545 1804.33 834.065C1804.32 839.705 1804.32 845.344 1804.32 850.984V850.984C1804.32 863.515 1804.32 876.047 1804.3 888.579C1804.29 889.714 1804.6 889.976 1805.71 889.976C1817.68 889.959 1842.13 889.983 1853.57 889.995C1856.75 889.998 1858.93 890 1859.55 890L1856.8 885.823C1851.44 877.689 1846.18 869.712 1840.86 861.633L1837.92 866.099C1834.83 870.786 1831.77 875.423 1828.64 880.18H1830.17C1830.94 880.18 1831.72 880.18 1832.5 880.18H1832.5C1834.83 880.179 1837.15 880.178 1839.48 880.186C1839.58 880.186 1839.67 880.181 1839.77 880.175C1840.17 880.153 1840.58 880.13 1840.86 880.505C1841.71 881.597 1842.54 882.696 1843.43 883.857L1843.43 883.86C1843.85 884.414 1844.28 884.983 1844.73 885.572C1836.32 885.745 1828.03 885.73 1819.71 885.715H1819.71C1815.52 885.707 1811.32 885.699 1807.1 885.716C1811.1 879.635 1815.07 873.604 1819.03 867.595L1819.05 867.561C1824.34 859.52 1829.61 851.52 1834.89 843.493C1835.16 843.91 1835.43 844.316 1835.69 844.713C1836.31 845.665 1836.9 846.565 1837.53 847.434C1837.98 848.061 1837.86 848.515 1837.48 849.098C1831.41 858.31 1817.93 878.916 1817.12 880.178C1817.62 880.178 1818.1 880.172 1818.57 880.166ZM1798.56 841.527L1798.56 841.527C1797.91 842.51 1797.3 843.424 1796.83 844.112C1796.38 844.768 1796.18 845.422 1796.19 846.224C1796.21 853.131 1796.23 881.396 1796.18 888.617C1796.17 889.706 1796.49 889.984 1797.53 889.922C1798.91 889.838 1800.32 889.808 1801.71 889.927C1802.98 890.035 1803.24 889.57 1803.23 888.368C1803.2 871.894 1803.2 838.95 1803.21 835.394L1803.21 835.086C1802.78 835.191 1800.48 838.653 1798.56 841.527ZM1794.82 847.392C1794.87 847.407 1794.92 847.421 1794.96 847.434C1794.96 847.457 1794.96 847.573 1794.96 847.771C1794.96 850.977 1794.95 875.95 1794.99 888.452C1794.99 889.614 1794.75 890.03 1793.52 889.935C1792.15 889.83 1790.77 889.869 1789.38 889.907C1789.24 889.911 1789.09 889.915 1788.94 889.919C1788.26 889.938 1788 889.746 1788 889.019C1788.02 880.88 1788.02 872.742 1788.01 864.602C1788.01 862.383 1788.01 860.163 1788.01 857.943C1788.01 857.581 1788.03 857.227 1788.24 856.911C1790.39 853.723 1792.53 850.538 1794.67 847.351C1794.72 847.364 1794.77 847.378 1794.82 847.392Z" fill="#561D7B"/>
</svg>
