<svg width="100" height="100" viewBox="0 0 100 100" fill="none" xmlns="http://www.w3.org/2000/svg">
<g clip-path="url(#clip0)">
<path d="M47.1147 74.0019C46.3626 73.45 45.3042 73.6111 44.7515 74.3636L44.5427 74.6478C43.9905 75.3998 44.1513 76.4566 44.9024 77.0099C45.2042 77.2324 45.5558 77.3398 45.904 77.3398C46.4222 77.3398 46.9337 77.1023 47.2649 76.6535L47.4769 76.3654C48.0294 75.6129 47.8673 74.5547 47.1147 74.0019Z" fill="#FE8326"/>
<path d="M47.5559 90.0862L43.2077 82.1795L47.2675 76.6502C47.8204 75.8977 47.6581 74.8395 46.9053 74.2867C46.1528 73.7338 45.0946 73.8961 44.5421 74.649L39.8432 81.0485C39.4536 81.5789 39.4075 82.2871 39.7245 82.8639L44.5932 91.7157V91.7155C44.9012 92.2751 45.4796 92.5917 46.0762 92.5917C46.3518 92.5915 46.6311 92.5241 46.8895 92.3821C47.7075 91.9323 48.0059 90.9044 47.5559 90.0862Z" fill="#FE8326"/>
<path d="M60.1571 81.0488L55.4774 74.6754C55.0893 74.147 54.4317 73.8902 53.7883 74.0175C53.1452 74.1439 52.6333 74.631 52.4743 75.2668C52.3522 75.755 52.454 76.2718 52.7518 76.6775L56.7917 82.1799L52.4731 90.0328C52.336 90.2822 52.2639 90.5635 52.2639 90.8484C52.2639 91.6201 52.7866 92.294 53.534 92.486C53.6741 92.5221 53.8153 92.5395 53.9547 92.5395C54.56 92.5395 55.1336 92.2129 55.4362 91.6635L60.2756 82.8646C60.593 82.2875 60.5465 81.5793 60.1571 81.0488Z" fill="#FE8326"/>
<path d="M62.8363 54.4792C62.2803 54.1872 61.608 54.227 61.0906 54.5836C60.085 55.2764 59.1517 56.0104 58.317 56.7649C53.767 60.8782 49.4441 60.3216 49.2748 60.2973C49.1728 60.2813 49.0691 60.2739 48.9666 60.2772C47.1683 60.3233 43.9261 58.6801 40.4962 55.9864C39.9716 55.5745 39.4337 55.1819 38.8966 54.8194C38.3787 54.4694 37.7093 54.434 37.1574 54.7276C36.6052 55.021 36.2601 55.5952 36.2601 56.2206V62.0206C36.2601 62.5335 36.4935 63.0182 36.8935 63.3393C36.9408 63.3774 36.99 63.4126 37.0408 63.445L49.0293 71.456C49.0312 71.4571 49.033 71.4587 49.0349 71.4601L49.0666 71.4812C49.3488 71.6679 49.674 71.7622 50.0004 71.7622C50.275 71.7622 50.5496 71.6956 50.8006 71.5614C50.8535 71.5331 50.9043 71.5021 50.9531 71.4689C50.9588 71.4651 50.9644 71.4614 50.9703 71.4575C50.9769 71.4532 50.9836 71.4487 50.9902 71.4442L62.9504 63.4522C62.9984 63.4218 63.0453 63.3889 63.0904 63.3538C63.5008 63.0335 63.7406 62.5419 63.7406 62.0212V55.976C63.7406 55.3475 63.3926 54.7715 62.8363 54.4792ZM60.359 61.1163L50.0002 68.0382L39.6416 61.1161V59.5784C42.1638 61.4114 45.8742 63.6596 48.8986 63.6595C48.9049 63.6595 48.9119 63.6595 48.9183 63.6595C49.9338 63.7718 55.1121 64.077 60.3594 59.4739V61.1163H60.359Z" fill="#FE8326"/>
<path d="M51.6678 69.7936C51.5563 69.1231 51.0537 68.5846 50.3924 68.4268C49.7307 68.2699 49.0397 68.5229 48.6373 69.0709L44.7512 74.3641C44.1985 75.1168 44.3606 76.175 45.1135 76.7276C45.4149 76.9491 45.7653 77.0557 46.1127 77.0557C46.6326 77.0557 47.1455 76.8164 47.4772 76.3651L51.343 71.0998C51.5629 70.8123 51.691 70.4545 51.691 70.0721C51.6909 69.9791 51.683 69.8854 51.6678 69.7936Z" fill="#FE8326"/>
<path d="M75.7581 15.2875C75.7245 15.0227 74.9325 9.30666 69.552 7.05177C69.7083 6.04786 69.6919 4.75763 69.0546 3.50235C68.1979 1.81524 66.5075 0.715821 64.03 0.23418C63.9237 0.213477 63.8159 0.203125 63.7075 0.203125H41.0147C31.8002 0.203125 24.3035 7.69962 24.3035 16.9145V25.819C24.3035 28.1389 25.0943 30.4012 26.5299 32.1887C27.2416 33.0751 28.1182 34.6229 28.2504 36.9632C28.3019 37.8768 29.0668 38.5829 29.9861 38.5575C30.901 38.5317 31.6291 37.7825 31.6291 36.8675V25.2581C32.7771 20.5102 36.6953 19.5862 37.369 19.4614H44.7092C45.5727 19.4614 46.4217 19.3295 47.2332 19.0694C48.6289 18.6217 50.8432 17.7979 52.4553 17.1856C53.5338 16.7756 54.728 16.7606 55.8172 17.1434L63.6755 19.902C67.604 21.3512 68.3052 24.8001 68.3921 25.3418V39.2749C68.3921 40.1598 69.0743 40.894 69.9567 40.9599C69.9997 40.963 70.0419 40.9647 70.0841 40.9647C70.9134 40.9645 71.6294 40.3569 71.755 39.5243C71.7616 39.4807 72.4366 35.12 74.6136 31.6286C75.371 30.4131 75.7716 29.0274 75.7716 27.6211V15.501C75.7716 15.4297 75.7671 15.3584 75.7581 15.2875ZM72.3899 27.6204C72.3899 28.3756 72.1768 29.1249 71.7733 29.7911V25.2262C71.7733 25.1651 71.77 25.1043 71.7634 25.0436C71.7368 24.7981 71.0382 19.0039 64.8301 16.7235C64.8225 16.7207 64.8149 16.718 64.8073 16.7153L56.9372 13.9524C56.0499 13.6408 55.1215 13.4854 54.1938 13.4854C53.1961 13.4854 52.1991 13.6653 51.2543 14.0246C48.9973 14.8821 47.2494 15.5131 46.2004 15.8494C45.7233 16.0024 45.2215 16.0801 44.709 16.0801H37.2322C37.1598 16.0801 37.0871 16.0848 37.015 16.094C36.7289 16.1311 29.9853 17.0901 28.2883 24.6965C28.2613 24.8174 28.2476 24.9409 28.2476 25.0647V28.5444C27.8795 27.6936 27.6846 26.7643 27.6846 25.8192V16.9149C27.6846 9.56486 33.6645 3.58497 41.0143 3.58497H63.5368C64.4692 3.7836 65.6024 4.19122 66.0323 5.02052C66.5587 6.03556 65.9591 7.43322 65.9585 7.43439C65.7423 7.89435 65.7448 8.42697 65.9645 8.88498C66.1844 9.34299 66.5989 9.67775 67.093 9.7967C71.3973 10.8328 72.2753 14.9612 72.3897 15.6289V27.6204H72.3899Z" fill="#FE8326"/>
<path d="M71.7637 25.0437C71.7371 24.7982 71.0385 19.004 64.8305 16.7236C64.8229 16.7208 64.8152 16.7181 64.8076 16.7154L56.9375 13.9525C55.0957 13.306 53.0777 13.3318 51.2545 14.0244C48.9974 14.8818 47.2496 15.5128 46.2005 15.8494C45.7234 16.0023 45.2216 16.0798 44.7091 16.0798H37.2324C37.1599 16.0798 37.0872 16.0845 37.0152 16.0937C36.729 16.1308 29.9855 17.0898 28.2884 24.6962C28.2614 24.8171 28.2478 24.9406 28.2478 25.0644V39.5988C28.2478 39.6113 28.248 39.6238 28.2482 39.6363C28.2593 40.1412 28.6165 52.0645 36.8548 57.5174L36.8974 57.5475C36.9328 57.5725 36.9681 57.5975 37.005 57.6223C37.4747 57.9395 37.9464 58.2838 38.4078 58.6459C40.8078 60.5305 45.3306 63.6596 48.8986 63.6596C48.9052 63.6596 48.9115 63.6596 48.9183 63.6596C49.1121 63.6809 49.458 63.7094 49.9271 63.7094C51.9492 63.7094 56.2633 63.1795 60.5844 59.2733C61.3096 58.618 62.125 57.977 63.009 57.368L63.1353 57.2795C63.1766 57.2504 63.2178 57.2211 63.2603 57.1926C66.0084 55.3469 70.7678 50.5844 71.767 39.4254C71.7715 39.3754 71.7738 39.3248 71.7738 39.2744V25.2263C71.7736 25.1654 71.7701 25.1046 71.7637 25.0437ZM68.392 39.198C67.4707 49.2688 63.1799 53.1729 61.3748 54.3852C61.3107 54.4283 61.2475 54.4729 61.1842 54.5174L61.0904 54.5834C60.0848 55.2762 59.1515 56.0102 58.3168 56.7647C53.7838 60.8627 49.475 60.3252 49.2636 60.2955C49.1654 60.2809 49.0658 60.2746 48.9664 60.2774C47.1681 60.3235 43.9259 58.6803 40.496 55.9865C39.9714 55.5744 39.4335 55.1819 38.8972 54.8199L38.8556 54.7906C38.815 54.7617 38.7746 54.733 38.7269 54.7014C32.0788 50.3012 31.6439 40.0041 31.6292 39.5744V25.258C32.7814 20.4927 36.7238 19.5792 37.3663 19.4613H44.7093C45.5728 19.4613 46.4218 19.3294 47.2334 19.0693C48.6291 18.6216 50.8435 17.7978 52.4554 17.1855C53.534 16.7755 54.7281 16.7605 55.8174 17.1433L63.6756 19.9019C67.6041 21.3511 68.3053 24.8 68.3922 25.3418V39.198H68.392Z" fill="#FE8326"/>
<path d="M51.5122 69.3162C51.2487 68.7893 50.73 68.4375 50.1431 68.3875C49.5571 68.3391 48.9856 68.5967 48.637 69.0717L44.587 74.5877C44.0348 75.3401 44.1962 76.3975 44.9479 76.9504C45.2495 77.1723 45.6005 77.2795 45.9483 77.2795C46.4671 77.2795 46.9792 77.0414 47.3106 76.5916L51.3608 71.0959C51.5751 70.8053 51.6907 70.4338 51.6907 70.0729C51.6909 69.8106 51.6294 69.5512 51.5122 69.3162Z" fill="#FE8326"/>
<path d="M51.6205 96.5383C50.9854 95.8741 49.936 95.8387 49.2579 96.4592L48.8713 96.8128C48.2926 97.3419 48.1538 98.1997 48.5362 98.8845L48.5481 98.9057C48.8063 99.3684 49.2668 99.6833 49.7916 99.7561C49.8694 99.7669 49.9471 99.7722 50.0245 99.7722C50.4696 99.7722 50.9006 99.5962 51.22 99.2768L51.5944 98.902C52.2442 98.2522 52.2559 97.2022 51.6205 96.5383Z" fill="#FE8326"/>
<path d="M51.1288 96.8129L50.7423 96.4594C50.0642 95.8391 49.0146 95.8744 48.3794 96.5385C47.7441 97.203 47.7558 98.2532 48.4058 98.9028L48.7808 99.2776C49.1001 99.5969 49.531 99.7727 49.9761 99.7727C50.0556 99.7727 50.1355 99.7672 50.2154 99.7557C50.7419 99.6805 51.2025 99.3616 51.4585 98.8952L51.4705 98.8739C51.8451 98.1903 51.704 97.3389 51.1288 96.8129Z" fill="#FE8326"/>
<path d="M51.1574 96.8392L51.1552 96.8373C50.8941 96.5931 50.5564 96.4322 50.1843 96.3914C49.6861 96.3371 49.2007 96.5058 48.8478 96.8345L48.8427 96.8392C48.5009 97.1509 48.3019 97.5894 48.2919 98.0519C48.282 98.5148 48.462 98.9611 48.79 99.2873L48.8077 99.3051C49.1376 99.633 49.5687 99.7969 49.9999 99.7969C50.4327 99.7969 50.8654 99.6316 51.1952 99.3019L51.213 99.2842C51.5396 98.9574 51.7185 98.5115 51.7077 98.0498C51.6976 97.5879 51.4986 97.1506 51.1574 96.8392Z" fill="#FE8326"/>
<path d="M50.5485 68.4356C49.8483 68.2114 49.08 68.4713 48.6536 69.071C48.1766 69.7424 48.2553 70.6575 48.8364 71.2413C49.1634 71.5698 49.5973 71.7382 50.0346 71.7382C50.3743 71.7382 50.7157 71.6366 51.0102 71.4292C51.4602 71.1126 51.728 70.5969 51.728 70.0465V70.0424C51.728 69.3067 51.2495 68.6592 50.5485 68.4356Z" fill="#FE8326"/>
<path d="M51.3739 69.057L51.3595 69.0375C50.9257 68.4504 50.1639 68.2086 49.4708 68.4369C48.7776 68.6652 48.3092 69.3129 48.3092 70.0426V70.0715C48.3092 70.694 48.6587 71.2613 49.2071 71.5559C49.4555 71.6893 49.7298 71.7551 50.0036 71.7551C50.3339 71.7551 50.6638 71.6594 50.9473 71.4715C51.3339 71.2156 51.5985 70.8121 51.6792 70.3557C51.7598 69.8994 51.6495 69.4297 51.3739 69.057Z" fill="#FE8326"/>
<path d="M70.1133 63.7458C69.9381 63.2827 69.5688 62.9198 69.1028 62.753L62.6201 60.4292C62.5676 60.4104 62.5131 60.3936 62.4588 60.3803C61.9961 60.2645 61.5059 60.3495 61.1094 60.6147L49.098 68.6409C49.0949 68.643 49.0914 68.6452 49.0881 68.6475L50.0312 70.0499L49.067 68.6618C48.7146 68.8948 48.4623 69.252 48.3599 69.6618C48.3037 69.8868 48.2945 70.1217 48.3326 70.3505C48.3762 70.6118 48.4804 70.8594 48.6375 71.0733L57.4314 83.0501C57.751 83.4856 58.258 83.7403 58.7939 83.7403C58.8307 83.7403 58.8676 83.739 58.9045 83.7364C59.4805 83.6985 59.9975 83.37 60.2756 82.864L70.0133 65.1592C70.2522 64.7253 70.2887 64.2085 70.1133 63.7458ZM58.5893 78.9136L52.4086 70.4956L62.2801 63.8993L66.0951 65.267L58.5893 78.9136Z" fill="#FE8326"/>
<path d="M51.6659 69.7803C51.5864 69.3264 51.3253 68.9246 50.9425 68.6678L38.8911 60.6148C38.5075 60.3582 38.0346 60.2703 37.5841 60.3703C37.5149 60.3855 37.4469 60.4055 37.3803 60.4293L30.8977 62.7531C30.4317 62.9201 30.0624 63.283 29.8872 63.7459C29.712 64.209 29.7483 64.7254 29.987 65.1594L39.7247 82.8641C40.0028 83.37 40.5198 83.6987 41.0958 83.7366C41.1325 83.7389 41.1694 83.7401 41.2061 83.7401C41.7421 83.7401 42.2489 83.4854 42.569 83.0497L47.2679 76.6502C47.2716 76.6453 47.2753 76.6401 47.279 76.6348L51.3632 71.0721C51.6358 70.7006 51.7452 70.2342 51.6659 69.7803ZM44.5425 74.6483C44.5384 74.6537 44.5345 74.6592 44.5304 74.6647L41.4106 78.9137L33.9048 65.267L37.72 63.8994L47.5913 70.4957L44.5425 74.6483Z" fill="#FE8326"/>
<path d="M99.9164 92.6085L97.7353 79.438C97.048 75.2874 94.1635 71.8196 90.2072 70.3888L69.1068 62.7548C68.4562 62.5196 67.729 62.704 67.2693 63.22C66.8095 63.7362 66.7101 64.4803 67.0187 65.0993L71.4242 73.9341L67.1013 74.0007C66.5144 74.0099 65.974 74.3224 65.6742 74.827C65.3742 75.3317 65.3574 75.9556 65.6296 76.4757L67.4027 79.861L49.2575 96.4601C49.239 96.4771 49.2208 96.4943 49.203 96.512L48.8284 96.8867C48.2978 97.4175 48.1804 98.2347 48.5407 98.8933L48.554 98.9173C48.8507 99.4593 49.4194 99.7966 50.0374 99.7966H93.8209C95.6398 99.7966 97.3574 99.0011 98.5334 97.614C99.7096 96.2269 100.214 94.4023 99.9164 92.6085ZM95.9549 95.4271C95.4221 96.0552 94.6443 96.4154 93.8211 96.4154H54.3159L70.6462 81.4771C71.2126 80.9593 71.3591 80.1251 71.0029 79.4452L69.8997 77.3392L74.1626 77.2735C74.7437 77.2647 75.2791 76.9579 75.5812 76.4616C75.883 75.9649 75.9089 75.3485 75.6498 74.8284L71.9316 67.3721L89.0578 73.5681C91.8654 74.5837 93.9125 77.0446 94.4002 79.9901L96.5812 93.1607C96.5812 93.1609 96.5812 93.1609 96.5812 93.1609C96.7156 93.9732 96.4875 94.799 95.9549 95.4271Z" fill="#FE8326"/>
<path d="M51.1719 96.8526L51.1522 96.8349C50.4831 96.229 49.4553 96.2559 48.8186 96.8962L48.801 96.914C48.3196 97.3983 48.1768 98.1249 48.4389 98.7554C48.7012 99.386 49.3172 99.7968 50.0001 99.7968H50.0372C50.7362 99.7968 51.3633 99.3663 51.6145 98.7142C51.8663 98.0616 51.6903 97.3218 51.1719 96.8526Z" fill="#FE8326"/>
<path d="M51.1188 96.8038C50.735 96.4583 50.2145 96.3069 49.7047 96.3938C49.1955 96.4799 48.7537 96.7946 48.5053 97.2473L48.4936 97.2686C48.1371 97.9184 48.2455 98.7247 48.761 99.2575L48.767 99.2637C49.0983 99.6061 49.5397 99.7788 49.9822 99.7788C50.3895 99.7788 50.7979 99.6323 51.1213 99.3368L51.1391 99.3208C51.2926 99.1809 51.4192 99.0133 51.5121 98.8274C51.8526 98.1471 51.6842 97.3124 51.1188 96.8038Z" fill="#FE8326"/>
<path d="M51.1919 96.9071L51.1849 96.8999C51.1804 96.8954 51.1757 96.8907 51.1714 96.8864L50.7964 96.5118C50.7788 96.494 50.7607 96.4767 50.7423 96.4601L32.5972 79.861L34.3704 76.4756C34.6429 75.9557 34.6259 75.3317 34.3261 74.827C34.0261 74.3225 33.4858 74.0098 32.8989 74.0006L28.5757 73.934L32.9811 65.0993C33.2897 64.4805 33.1901 63.7362 32.7306 63.22C32.271 62.7037 31.5429 62.5192 30.8931 62.7547L9.79282 70.3887C5.83656 71.8194 2.95179 75.2872 2.26448 79.4379L0.0834225 92.6085C-0.213648 94.403 0.29065 96.2272 1.46682 97.6142C2.64319 99.0011 4.36097 99.7966 6.17933 99.7966H50.0001C50.6849 99.7966 51.3019 99.3835 51.5628 98.7507C51.824 98.1179 51.6775 97.3897 51.1919 96.9071ZM6.17953 96.4153C5.35609 96.4153 4.57835 96.0552 4.04593 95.427C3.51351 94.7991 3.28538 93.9731 3.41976 93.1606L5.60082 79.9901C6.08851 77.0442 8.13559 74.5836 10.9432 73.568L28.0692 67.3721L24.3512 74.828C24.0919 75.3481 24.1176 75.9645 24.4198 76.4612C24.7216 76.9577 25.2573 77.2643 25.8384 77.2731L30.1013 77.3389L28.9981 79.445C28.6421 80.1247 28.7886 80.959 29.3546 81.4768L45.6849 96.4153H6.17953Z" fill="#FE8326"/>
<path d="M55.7548 76.0855C55.8769 75.5972 55.7751 75.0802 55.4773 74.6746L51.3628 69.0712C50.9304 68.4822 50.1679 68.248 49.4737 68.4757C49.0989 68.5986 48.7901 68.8466 48.5847 69.1636L44.5454 74.6443C44.4876 74.7224 44.4362 74.8064 44.3927 74.8935C44.1159 75.4472 44.1638 76.1078 44.5173 76.6158L46.2374 79.0859L44.405 90.6361C44.3462 91.007 44.4126 91.3867 44.5935 91.7158L48.5188 98.8527C48.8159 99.3932 49.3839 99.7287 50.0003 99.7287C50.6169 99.7287 51.1847 99.3932 51.4817 98.8527L55.4364 91.6629C55.5736 91.4133 55.6456 91.133 55.6456 90.8482V90.8472C55.6456 90.7586 55.6384 90.6699 55.6247 90.5822L53.8007 79.0861L55.5023 76.6431C55.6191 76.474 55.7052 76.2847 55.7548 76.0855ZM50.0003 94.5299L47.8353 90.5937L49.6837 78.9435C49.7523 78.5119 49.6509 78.0708 49.4013 77.7125L47.9845 75.6777L50.0052 72.9359L52.0364 75.7023L50.6366 77.7125C50.387 78.0707 50.2858 78.5119 50.3542 78.9435L52.1942 90.5406L50.0003 94.5299Z" fill="#FE8326"/>
</g>
<defs>
<clipPath id="clip0">
<rect width="100" height="100" fill="white"/>
</clipPath>
</defs>
</svg>
