<svg width="100" height="100" viewBox="0 0 100 100" fill="none" xmlns="http://www.w3.org/2000/svg">
<g clip-path="url(#clip0)">
<path d="M51.5783 95.3514L27.4082 32.2532C27.1822 31.6635 26.6467 31.2489 26.0193 31.1782C25.4373 31.1118 24.8693 31.3512 24.5088 31.8026C24.1898 31.3446 23.8279 30.912 23.4252 30.5092C23.0172 30.1012 22.5783 29.7346 22.1148 29.412C23.0467 28.7639 23.8572 27.953 24.5051 27.0209C24.8656 27.4752 25.4369 27.7159 26.0197 27.65C26.6475 27.5787 27.183 27.1639 27.4086 26.5741L32.8162 12.4397C33.015 11.92 32.9455 11.3354 32.6301 10.8772C32.3148 10.4188 31.7938 10.145 31.2373 10.145H14.4381C13.8963 10.145 13.3873 10.4047 13.0693 10.8432L0.321881 28.4217C-0.107611 29.0139 -0.107416 29.8153 0.322467 30.4075L48.6318 96.9492C48.9598 97.401 49.4746 97.6469 50.001 97.6469C50.2744 97.6469 50.5508 97.5803 50.8057 97.4424C51.5514 97.0377 51.882 96.1434 51.5783 95.3514ZM3.7795 29.4135L15.3004 13.5262H28.7807L25.9916 20.8157C25.7053 20.2887 25.1471 19.9315 24.5053 19.9315C23.5717 19.9315 22.8147 20.6885 22.8147 21.6221C22.8147 24.9864 20.0777 27.7233 16.7135 27.7233C15.7799 27.7233 15.0229 28.4803 15.0229 29.4139C15.0229 30.3475 15.7799 31.1045 16.7135 31.1045C18.342 31.1045 19.8766 31.742 21.0344 32.9C22.1824 34.0481 22.8145 35.577 22.8145 37.2057C22.8145 38.1393 23.5715 38.8963 24.5051 38.8963C25.1477 38.8963 25.7066 38.5379 25.9926 38.0098L43.8334 84.5844L3.7795 29.4135Z" fill="#FE8326"/>
<path d="M99.8924 28.8204C99.8719 28.7657 99.8487 28.7118 99.8225 28.6588C99.7702 28.5528 99.7071 28.4538 99.6354 28.3629L88.8629 13.5077C88.561 13.0911 88.0856 12.8348 87.5715 12.8114C87.0594 12.7889 86.561 12.9997 86.2219 13.387C85.9858 13.6569 85.7664 13.9383 85.5641 14.2301C85.243 13.7709 84.8786 13.3381 84.4733 12.9372C82.692 11.1364 80.3061 10.1448 77.7545 10.1448H68.7629C68.2063 10.1448 67.6854 10.4186 67.3699 10.8772C67.0545 11.3358 66.985 11.9204 67.184 12.4401L73.685 29.4151L48.4213 95.3497C48.1176 96.142 48.4481 97.0366 49.194 97.4409C49.4489 97.5793 49.7254 97.6456 49.9989 97.6456C50.5252 97.6456 51.0403 97.3999 51.368 96.9477L99.6172 30.4854C99.6862 30.4012 99.7475 30.3098 99.8 30.2118C100.032 29.7774 100.061 29.27 99.8924 28.8204ZM56.1694 84.5784L77.0746 30.019C77.2307 29.6114 77.2213 29.1641 77.0582 28.7688L71.2205 13.5266H77.7541C79.3955 13.5266 80.928 14.162 82.0821 15.3284C83.2356 16.4696 83.8709 18.002 83.8709 19.6432C83.8709 20.5768 84.628 21.3338 85.5616 21.3338C86.4952 21.3338 87.2522 20.5768 87.2522 19.6432C87.2522 18.9247 87.3784 18.2184 87.62 17.554L96.2186 29.4112L56.1694 84.5784Z" fill="#FE8326"/>
<path d="M77.0768 28.8047L70.3453 11.2375C70.0945 10.5834 69.4666 10.1518 68.7664 10.1518H50.1525C50.1022 10.1473 50.0514 10.145 49.9998 10.145H31.2371C30.5363 10.145 29.9084 10.5772 29.658 11.2317L24.2504 25.3661C24.0547 25.8778 24.119 26.4526 24.4229 26.9082C24.7537 27.4043 25.1447 27.8789 25.5848 28.319C25.9916 28.7256 26.4279 29.0909 26.8899 29.4123C25.9338 30.076 25.0951 30.9194 24.4264 31.9151C24.1195 32.3717 24.0543 32.9489 24.251 33.4627L48.4211 96.5606C48.6752 97.2237 49.3096 97.6461 49.9986 97.6461C50.1008 97.6461 50.2041 97.6368 50.3074 97.6176C50.91 97.5063 51.3885 97.0833 51.5887 96.5334L77.0766 30.0145C77.2258 29.625 77.2258 29.1942 77.0768 28.8047ZM50 91.2295L27.7475 33.1379C28.8951 31.8524 30.5428 31.1049 32.2969 31.1047C33.2305 31.1047 33.9875 30.3477 33.9875 29.4141C33.9875 28.4805 33.2305 27.7235 32.2969 27.7235C30.6684 27.7235 29.1336 27.0856 27.9756 25.9276C27.8969 25.8489 27.8209 25.7688 27.7479 25.6877L32.4006 13.5264H49.8473C49.8977 13.5309 49.9484 13.5332 50 13.5332H67.6037L73.6871 29.4096L50 91.2295Z" fill="#FE8326"/>
<path d="M32.2969 27.7233C30.6686 27.7233 29.1338 27.0854 27.9756 25.9272C27.6924 25.6442 27.4439 25.343 27.2338 25.028C26.5547 24.0159 26.1959 22.8382 26.1959 21.6221C26.1959 20.6885 25.4389 19.9315 24.5053 19.9315C23.5717 19.9315 22.8147 20.6885 22.8147 21.6221C22.8147 24.9864 20.0777 27.7233 16.7135 27.7233C15.7799 27.7233 15.0229 28.4803 15.0229 29.4139C15.0229 30.3475 15.7799 31.1046 16.7135 31.1046C18.342 31.1046 19.8768 31.7425 21.0346 32.9003C22.1826 34.0483 22.8147 35.577 22.8147 37.2057C22.8147 38.1393 23.5717 38.8964 24.5053 38.8964C25.4389 38.8964 26.1959 38.1395 26.1957 37.2057C26.1957 35.9895 26.5547 34.8118 27.2332 33.8005C28.367 32.1124 30.2602 31.1046 32.2971 31.1046C33.2307 31.1046 33.9877 30.3475 33.9877 29.4139C33.9877 28.4803 33.2307 27.7233 32.2969 27.7233ZM24.5061 31.7985C24.1875 31.3423 23.8268 30.911 23.4252 30.5096C23.0172 30.1016 22.5785 29.7348 22.1148 29.4122C23.0453 28.7649 23.8547 27.9555 24.5022 27.0253C24.8156 27.479 25.1795 27.9139 25.5848 28.319C25.9914 28.7257 26.4279 29.0911 26.8898 29.4126C25.9717 30.0499 25.1617 30.8534 24.5061 31.7985Z" fill="#FE8326"/>
<path d="M93.3533 10.1451C91.7248 10.1451 90.19 9.50718 89.0322 8.34937C87.8842 7.20132 87.2521 5.67241 87.2521 4.0439C87.2521 3.1103 86.4951 2.35327 85.5615 2.35327C84.6279 2.35327 83.8709 3.1103 83.8709 4.0439C83.8709 7.40815 81.1269 10.1451 77.7543 10.1451C76.8207 10.1451 76.0637 10.9021 76.0637 11.8357C76.0637 12.7693 76.8207 13.5263 77.7543 13.5263C79.3957 13.5263 80.9281 14.1617 82.0822 15.3281C83.2359 16.4693 83.8711 18.0017 83.8711 19.6429C83.8711 20.5765 84.6281 21.3335 85.5617 21.3335C86.4953 21.3335 87.2523 20.5765 87.2521 19.6431C87.2521 18.1607 87.79 16.7296 88.7656 15.6144C89.9281 14.2875 91.6004 13.5261 93.3533 13.5261C94.2869 13.5261 95.0439 12.7691 95.0439 11.8355C95.0439 10.9019 94.2871 10.1451 93.3533 10.1451ZM86.2217 13.3869C85.9857 13.6568 85.7662 13.9382 85.5639 14.23C85.2428 13.7709 84.8783 13.338 84.473 12.9371C84.067 12.5265 83.6289 12.1576 83.165 11.8334C84.0974 11.1861 84.9084 10.3761 85.5564 9.44546C85.876 9.90366 86.2383 10.3369 86.6412 10.7402C87.0502 11.149 87.4892 11.516 87.9535 11.8392C87.3217 12.2781 86.739 12.7964 86.2217 13.3869Z" fill="#FE8326"/>
<path d="M50 10.145C49.0664 10.145 48.3094 10.902 48.3094 11.8356V95.9559C48.3094 96.8895 49.0664 97.6465 50 97.6465C50.9338 97.6465 51.6906 96.8895 51.6906 95.9559V11.8356C51.6906 10.902 50.9336 10.145 50 10.145Z" fill="#FE8326"/>
<path d="M16.7135 27.7235H1.69082C0.757031 27.7235 0 28.4805 0 29.4141C0 30.3477 0.757031 31.1048 1.69063 31.1048H16.7133C17.6469 31.1048 18.4039 30.3477 18.4039 29.4141C18.4041 28.4805 17.6471 27.7235 16.7135 27.7235Z" fill="#FE8326"/>
<path d="M98.3059 27.7235H32.2969C31.3633 27.7235 30.6063 28.4805 30.6063 29.4141C30.6063 30.3477 31.3633 31.1048 32.2969 31.1048H98.3057C99.2393 31.1048 99.9963 30.3477 99.9963 29.4141C99.9965 28.4805 99.2395 27.7235 98.3059 27.7235Z" fill="#FE8326"/>
</g>
<defs>
<clipPath id="clip0">
<rect width="100" height="100" fill="white"/>
</clipPath>
</defs>
</svg>
