<svg width="100" height="100" viewBox="0 0 100 100" fill="none" xmlns="http://www.w3.org/2000/svg">
<path d="M60.5447 44.4975C66.326 40.8012 71.1111 36.0123 74.3844 30.6479C77.573 25.4217 79.3063 19.8158 79.5547 13.9648H79.6875C80.9044 13.9634 82.071 13.4794 82.9315 12.619C83.7919 11.7585 84.2759 10.5919 84.2773 9.375V4.6875C84.2773 4.299 84.123 3.92641 83.8483 3.6517C83.5736 3.37699 83.201 3.22266 82.8125 3.22266H17.1875C16.799 3.22266 16.4264 3.37699 16.1517 3.6517C15.877 3.92641 15.7227 4.299 15.7227 4.6875V9.375C15.7241 10.5919 16.2081 11.7585 17.0685 12.619C17.929 13.4794 19.0956 13.9634 20.3125 13.9648H20.4447C20.6928 19.8158 22.4268 25.4217 25.6156 30.6479C28.8887 36.0123 33.6742 40.8012 39.4553 44.4975C40.3781 45.0887 41.1373 45.9026 41.6632 46.8641C42.1891 47.8257 42.4648 48.904 42.4648 50C42.4648 51.096 42.1891 52.1743 41.6632 53.1359C41.1373 54.0974 40.3781 54.9113 39.4553 55.5025C33.674 59.1988 28.8889 63.9877 25.6156 69.3521C22.4266 74.5789 20.6924 80.1852 20.4449 86.0367C19.1874 86.0545 17.9873 86.5661 17.1038 87.4611C16.2203 88.3561 15.7242 89.5627 15.7227 90.8203V95.3125C15.7227 95.701 15.877 96.0736 16.1517 96.3483C16.4264 96.623 16.799 96.7773 17.1875 96.7773H82.8125C83.201 96.7773 83.5736 96.623 83.8483 96.3483C84.123 96.0736 84.2773 95.701 84.2773 95.3125V90.625C84.2759 89.4081 83.7919 88.2415 82.9315 87.381C82.071 86.5206 80.9044 86.0366 79.6875 86.0352H79.5553C79.307 80.1842 77.5732 74.5783 74.3844 69.3521C71.1113 63.9877 66.3256 59.1988 60.5447 55.5025C59.6219 54.9113 58.8627 54.0974 58.3368 53.1359C57.8109 52.1743 57.5352 51.096 57.5352 50C57.5352 48.904 57.8109 47.8257 58.3368 46.8641C58.8627 45.9026 59.6219 45.0887 60.5447 44.4975ZM18.6523 9.375V6.15234H81.3477V9.375C81.3471 9.81514 81.1721 10.2371 80.8608 10.5483C80.5496 10.8596 80.1276 11.0346 79.6875 11.0352H20.3125C19.8724 11.0346 19.4504 10.8596 19.1392 10.5483C18.8279 10.2371 18.6529 9.81514 18.6523 9.375ZM81.3477 90.625V93.8477H18.6523V90.8203C18.6529 90.3284 18.8486 89.8568 19.1964 89.5089C19.5443 89.1611 20.0159 88.9654 20.5078 88.9648H79.6875C80.1276 88.9654 80.5496 89.1404 80.8608 89.4517C81.1721 89.7629 81.3471 90.1849 81.3477 90.625ZM30.5324 86.0352C32.4529 82.9883 37.2176 80.1342 44.0463 78.0092C46.6666 77.1938 48.6982 76.0283 50 74.6219C51.3016 76.0281 53.3334 77.1938 55.9537 78.0092C62.7824 80.1342 67.5471 82.9883 69.4676 86.0352H30.5324ZM54.6055 50C54.6011 51.5886 54.9987 53.1525 55.7611 54.5462C56.5236 55.9399 57.6262 57.1181 58.9664 57.9711C69.7352 64.8559 76.1014 75.0195 76.6211 86.0352H72.7416C70.9885 81.6949 65.4072 77.8826 56.8236 75.2119C53.9029 74.3029 51.8721 72.8848 51.3912 71.4186C51.295 71.1253 51.1087 70.8699 50.8587 70.6888C50.6087 70.5077 50.308 70.4102 49.9993 70.4102C49.6907 70.4102 49.3899 70.5077 49.1399 70.6888C48.89 70.8699 48.7036 71.1253 48.6074 71.4186C48.1266 72.8848 46.0959 74.3029 43.1752 75.2119C34.592 77.8828 29.0096 81.6949 27.2572 86.0352H23.3789C23.899 75.0195 30.2652 64.8559 41.0338 57.9711C42.371 57.1149 43.4712 55.936 44.2333 54.5431C44.9954 53.1501 45.3949 51.5878 45.3949 50C45.3949 48.4122 44.9954 46.8499 44.2333 45.4569C43.4712 44.064 42.371 42.8851 41.0338 42.0289C30.2648 35.1441 23.8986 24.9805 23.3789 13.9648H76.6211C76.1012 24.9805 69.7361 35.1441 58.9674 42.0289C57.627 42.8818 56.5242 44.0599 55.7616 45.4536C54.9989 46.8473 54.6012 48.4113 54.6055 50Z" fill="#FE8326"/>
<path d="M69.984 24.2422C69.8536 24.0264 69.6697 23.848 69.4501 23.7241C69.2305 23.6003 68.9826 23.5352 68.7305 23.5352H31.2695C31.0174 23.5351 30.7695 23.6002 30.5499 23.7241C30.3303 23.848 30.1463 24.0264 30.0159 24.2422C29.8854 24.458 29.8129 24.7038 29.8053 24.9558C29.7977 25.2079 29.8553 25.4576 29.9725 25.6809C32.7309 30.9348 37.1742 35.6207 42.8223 39.2322C44.3389 40.2001 45.6335 41.4778 46.6213 42.9815C47.609 44.4852 48.2675 46.1808 48.5535 47.957C48.6085 48.3011 48.7844 48.6143 49.0495 48.8404C49.3146 49.0665 49.6516 49.1907 50 49.1907C50.3484 49.1907 50.6855 49.0665 50.9506 48.8404C51.2157 48.6143 51.3915 48.3011 51.4465 47.957C51.7325 46.1808 52.391 44.4852 53.3788 42.9814C54.3665 41.4777 55.6612 40.2 57.1778 39.232C62.8256 35.6207 67.269 30.9348 70.0274 25.6809C70.1446 25.4576 70.2022 25.2079 70.1946 24.9558C70.187 24.7038 70.1145 24.458 69.984 24.2422ZM55.5996 36.7637C53.2046 38.2946 51.2695 40.4462 50 42.9895C48.7306 40.4462 46.7955 38.2947 44.4004 36.7639C39.9709 33.9318 36.3535 30.4039 33.8184 26.4648H66.1817C63.6465 30.4039 60.0291 33.9314 55.5996 36.7637Z" fill="#FE8326"/>
<path d="M50 51.6602C49.6115 51.6602 49.2389 51.8145 48.9642 52.0892C48.6895 52.3639 48.5352 52.7365 48.5352 53.125V54.685C48.5352 55.0735 48.6895 55.4461 48.9642 55.7208C49.2389 55.9955 49.6115 56.1498 50 56.1498C50.3885 56.1498 50.7611 55.9955 51.0358 55.7208C51.3105 55.4461 51.4648 55.0735 51.4648 54.685V53.125C51.4648 52.7365 51.3105 52.3639 51.0358 52.0892C50.7611 51.8145 50.3885 51.6602 50 51.6602Z" fill="#FE8326"/>
<path d="M50 59.4727C49.6115 59.4727 49.2389 59.627 48.9642 59.9017C48.6895 60.1764 48.5352 60.549 48.5352 60.9375V62.4975C48.5352 62.886 48.6895 63.2586 48.9642 63.5333C49.2389 63.808 49.6115 63.9623 50 63.9623C50.3885 63.9623 50.7611 63.808 51.0358 63.5333C51.3105 63.2586 51.4648 62.886 51.4648 62.4975V60.9375C51.4648 60.549 51.3105 60.1764 51.0358 59.9017C50.7611 59.627 50.3885 59.4727 50 59.4727Z" fill="#FE8326"/>
</svg>
