<svg width="100" height="100" viewBox="0 0 100 100" fill="none" xmlns="http://www.w3.org/2000/svg">
<g clip-path="url(#clip0)">
<path d="M90.024 32.7628H72.5514L70.7371 27.0927C70.5068 26.3718 69.8269 25.8894 69.0683 25.9185C68.3119 25.9449 67.6652 26.4708 67.4851 27.206L63.5437 43.3052L57.9949 24.3267C57.8056 23.6792 57.2496 23.2062 56.5801 23.1234C55.9098 23.0417 55.2557 23.3638 54.9142 23.9454L49.7392 32.7611H40.7953C39.8617 32.7611 39.1047 33.5181 39.1047 34.4517C39.1047 35.3853 39.8617 36.1423 40.7953 36.1423H50.7072C51.3068 36.1423 51.8615 35.8247 52.165 35.3076L55.848 29.0335L62.0652 50.2982C62.2764 51.0203 62.9385 51.5144 63.6875 51.5144C63.7 51.5144 63.7129 51.5142 63.7254 51.514C64.49 51.497 65.1482 50.9689 65.3299 50.2257L69.3433 33.8326L69.707 34.9687C69.9308 35.6689 70.5818 36.1441 71.317 36.1441H90.0234C90.957 36.1441 91.714 35.387 91.714 34.4535C91.714 33.5199 90.9576 32.7628 90.024 32.7628Z" fill="#FE8326"/>
<path d="M89.8947 10.102C83.3803 3.5877 74.7192 0 65.5066 0C56.2951 0 47.6328 3.58809 41.1191 10.1021C29.1656 22.0557 27.7002 40.8963 37.4543 54.5191L35.227 56.7465C33.5975 55.6514 31.0877 54.3914 29.4824 55.9973L25.8672 59.6123C25.5502 59.9293 25.3721 60.3594 25.3721 60.8078C25.3721 61.2562 25.5502 61.6861 25.8672 62.0033L37.9939 74.1299C38.324 74.46 38.7568 74.625 39.1895 74.625C39.6221 74.625 40.0547 74.4598 40.3844 74.1299L43.9996 70.5148C45.6053 68.9088 44.3453 66.3992 43.2504 64.7699L45.4777 62.5428C59.1004 72.2969 77.9408 70.8314 89.8949 58.8779C96.409 52.3635 99.9967 43.7023 99.9967 34.4898C99.9967 25.2773 96.4092 16.616 89.8947 10.102ZM87.5041 56.4867C76.402 67.5889 58.7147 68.6611 46.3613 58.9805C45.6887 58.4531 44.7277 58.5113 44.1232 59.1156L39.8381 63.4006C39.2377 64.001 39.1756 64.9533 39.6932 65.6264C40.8119 67.0812 41.2242 67.9885 41.34 68.3926L39.1893 70.5434L29.4531 60.8078L31.6041 58.657C32.0082 58.773 32.915 59.1852 34.3699 60.3037C35.0432 60.8211 35.9955 60.759 36.5957 60.159L40.8809 55.8738C41.4855 55.2689 41.5436 54.3086 41.016 53.6356C31.3355 41.2824 32.4074 23.5949 43.5096 12.4928C49.3852 6.61719 57.1973 3.38125 65.5065 3.38125C73.816 3.38125 81.6279 6.61699 87.5035 12.4928C93.3793 18.3686 96.6152 26.1807 96.6152 34.4898C96.6156 42.799 93.3799 50.6111 87.5041 56.4867Z" fill="#FE8326"/>
<path d="M84.3012 15.6962C79.2889 10.6839 72.6143 7.92333 65.5072 7.92352C58.4002 7.92372 51.7256 10.6843 46.7131 15.6968C41.7008 20.7091 38.9402 27.3835 38.9404 34.4901C38.9406 41.5966 41.7012 48.271 46.7137 53.2835C51.8959 58.4655 58.701 61.0556 65.5078 61.0556C72.3129 61.0556 79.1197 58.4645 84.3006 53.2843C94.6637 42.9206 94.6639 26.0589 84.3012 15.6962ZM81.9094 50.8931C72.8656 59.9372 58.1494 59.9372 49.1045 50.8923C44.7307 46.5186 42.3217 40.6933 42.3215 34.4897C42.3213 28.2862 44.7301 22.461 49.1039 18.0874C53.4777 13.7136 59.3033 11.3046 65.5072 11.3046C71.7111 11.3044 77.5365 13.713 81.9102 18.0866C86.2842 22.4602 88.6928 28.2858 88.6928 34.4897C88.6924 40.6938 86.2832 46.5192 81.9094 50.8931Z" fill="#FE8326"/>
<path d="M40.3842 71.7389L35.1088 66.4633L28.2578 59.6123C27.5977 58.9524 26.5274 58.9524 25.8672 59.6123L0.801399 84.6782C0.427766 85.052 -0.0138358 85.7174 0.0039376 86.7659C0.0601876 90.0534 4.96097 94.7942 5.94261 95.7112C8.21741 97.8358 11.0856 100 13.3285 100C14.0766 100 14.7553 99.759 15.319 99.1955L40.3842 74.1299C41.0446 73.4694 41.0446 72.3993 40.3842 71.7389ZM13.1379 96.5953C12.5032 96.467 10.7662 95.5899 8.25042 93.2403C5.03519 90.2373 3.5637 87.7157 3.39984 86.8616L27.0627 63.1989L36.7985 72.9346L13.1379 96.5953Z" fill="#FE8326"/>
</g>
<defs>
<clipPath id="clip0">
<rect width="100" height="100" fill="white"/>
</clipPath>
</defs>
</svg>
