<svg width="100" height="100" viewBox="0 0 100 100" fill="none" xmlns="http://www.w3.org/2000/svg">
<path d="M85.3549 14.6445C75.9115 5.20098 63.3553 0 49.9998 0C36.6443 0 24.0881 5.20078 14.6445 14.6445C5.20098 24.0883 0 36.6445 0 49.9998C0 63.3551 5.20098 75.9115 14.6445 85.3551C24.0883 94.799 36.6443 100 49.9998 100C63.3553 100 75.9109 94.7986 85.3549 85.3551C94.7988 75.9113 99.9996 63.3555 99.9996 50C99.9996 36.6445 94.7988 24.0885 85.3549 14.6445ZM49.9998 96.6184C24.2943 96.6184 3.38125 75.7055 3.38125 49.9998C3.38125 24.2945 24.2943 3.38125 49.9998 3.38125C75.7057 3.38125 96.6186 24.2945 96.6184 49.9998C96.6184 75.7055 75.7055 96.6184 49.9998 96.6184Z" fill="#FE8326"/>
<path d="M50.2166 9.00006C27.4897 9.00006 9 27.4897 9 50.2165C9 72.9432 27.4897 91.4329 50.2166 91.4329C72.9432 91.4329 91.4328 72.9432 91.4328 50.2165C91.4328 27.4897 72.9432 9.00006 50.2166 9.00006ZM50.2166 88.0518C29.3541 88.0518 12.3813 71.079 12.3813 50.2167C12.3813 29.3544 29.3541 12.3817 50.2166 12.3817C71.0789 12.3817 88.0516 29.3546 88.0516 50.2169C88.0516 71.0792 71.0789 88.0518 50.2166 88.0518Z" fill="#FE8326"/>
<path fill-rule="evenodd" clip-rule="evenodd" d="M35 26H66V29H35V26ZM35 31H66V37H53V75H47V37H35V31Z" fill="#FE8326"/>
</svg>
