<svg width="50" height="50" viewBox="0 0 50 50" fill="none" xmlns="http://www.w3.org/2000/svg">
<path d="M0 6.25C0 4.5924 0.65848 3.00269 1.83058 1.83058C3.00269 0.65848 4.5924 0 6.25 0L43.75 0C45.4076 0 46.9973 0.65848 48.1694 1.83058C49.3415 3.00269 50 4.5924 50 6.25V31.25C50 32.9076 49.3415 34.4973 48.1694 35.6694C46.9973 36.8415 45.4076 37.5 43.75 37.5H13.7937C12.965 37.5002 12.1703 37.8295 11.5844 38.4156L2.66875 47.3312C2.45041 47.5501 2.17203 47.6993 1.86886 47.76C1.56569 47.8206 1.25135 47.7899 0.965623 47.6718C0.679897 47.5537 0.435631 47.3535 0.263741 47.0965C0.0918518 46.8395 6.56715e-05 46.5373 0 46.2281L0 6.25ZM10.9375 9.375C10.5231 9.375 10.1257 9.53962 9.83265 9.83265C9.53962 10.1257 9.375 10.5231 9.375 10.9375C9.375 11.3519 9.53962 11.7493 9.83265 12.0424C10.1257 12.3354 10.5231 12.5 10.9375 12.5H39.0625C39.4769 12.5 39.8743 12.3354 40.1674 12.0424C40.4604 11.7493 40.625 11.3519 40.625 10.9375C40.625 10.5231 40.4604 10.1257 40.1674 9.83265C39.8743 9.53962 39.4769 9.375 39.0625 9.375H10.9375ZM10.9375 17.1875C10.5231 17.1875 10.1257 17.3521 9.83265 17.6451C9.53962 17.9382 9.375 18.3356 9.375 18.75C9.375 19.1644 9.53962 19.5618 9.83265 19.8549C10.1257 20.1479 10.5231 20.3125 10.9375 20.3125H39.0625C39.4769 20.3125 39.8743 20.1479 40.1674 19.8549C40.4604 19.5618 40.625 19.1644 40.625 18.75C40.625 18.3356 40.4604 17.9382 40.1674 17.6451C39.8743 17.3521 39.4769 17.1875 39.0625 17.1875H10.9375ZM10.9375 25C10.5231 25 10.1257 25.1646 9.83265 25.4576C9.53962 25.7507 9.375 26.1481 9.375 26.5625C9.375 26.9769 9.53962 27.3743 9.83265 27.6674C10.1257 27.9604 10.5231 28.125 10.9375 28.125H26.5625C26.9769 28.125 27.3743 27.9604 27.6674 27.6674C27.9604 27.3743 28.125 26.9769 28.125 26.5625C28.125 26.1481 27.9604 25.7507 27.6674 25.4576C27.3743 25.1646 26.9769 25 26.5625 25H10.9375Z" fill="#561D7B"/>
</svg>
