<svg width="36" height="36" viewBox="0 0 36 36" fill="none" xmlns="http://www.w3.org/2000/svg">
<path d="M2.70217 31.4175C3.52223 30.9216 4.30613 30.4445 5.0596 29.9812C6.33297 30.5183 11.0777 32.3933 15.2459 32.3931C15.7395 32.3931 16.2254 32.3668 16.696 32.3089C20.2994 31.8653 25.9704 28.9058 27.8816 25.7552L28.8218 24.2052L27.0207 23.9991C26.9144 23.9869 26.7572 23.972 26.5674 23.9556C28.2376 22.4101 29.265 20.6774 30.6118 18.4061L30.6213 18.3902C32.5249 15.1799 33.2396 10.69 33.87 6.72875C34.0031 5.8929 34.1288 5.10343 34.2599 4.36582L34.5 3.01604L33.1292 3.00117C28.5408 2.95302 22.5499 4.39067 18.5603 6.50106C15.63 8.05105 13.5657 9.486 11.7481 12.0465C11.6475 11.6342 11.5678 11.3274 11.5444 11.2378L10.9737 9.05576L9.52897 10.7879C9.37637 10.9709 5.77731 15.3041 4.48064 18.4171C2.70256 22.686 3.24885 26.2795 3.74288 28.0648C3.02688 28.5042 2.2813 28.9577 1.50003 29.4302L2.70217 31.4175ZM5.65289 25.6902C5.42303 23.5568 5.74998 21.4102 6.62478 19.3101C7.2934 17.7049 8.73462 15.63 9.84377 14.1504C9.94318 14.6353 10.0157 15.0562 10.0287 15.2955L10.2615 19.5704L12.2209 15.7639C14.0217 12.2655 15.6872 10.6483 19.6463 8.55407C22.8882 6.83916 27.7588 5.57121 31.7377 5.35528C31.6844 5.68386 31.6309 6.01988 31.5762 6.36363C30.9784 10.1196 30.3008 14.3767 28.6234 17.2055L28.6139 17.2214C26.7421 20.3779 25.7111 22.1166 22.7723 23.8895L19.6158 25.7937L23.2938 26.0426C23.5712 26.0613 24.0188 26.0923 24.505 26.1271C22.3405 28.0277 18.724 29.7189 16.4121 30.0035C13.5062 30.3613 9.73174 29.2386 7.52319 28.4437C13.7044 24.5176 17.8352 21.2737 23.3505 15.246L21.6369 13.678C16.1266 19.7006 12.1822 22.7709 5.82206 26.7739C5.75625 26.4544 5.69609 26.0917 5.65289 25.6902Z" fill="#FE8326"/>
</svg>
