<svg width="36" height="37" viewBox="0 0 36 37" fill="none" xmlns="http://www.w3.org/2000/svg">
<path d="M12.7981 25.4556H5.41459C4.83207 25.4556 4.3598 25.9278 4.3598 26.5104C4.3598 27.0929 4.83207 27.5651 5.41459 27.5651H12.7981C13.3806 27.5651 13.8529 27.0929 13.8529 26.5104C13.8529 25.9278 13.3806 25.4556 12.7981 25.4556Z" fill="#FE8326"/>
<path d="M12.7981 21.2363H5.41459C4.83207 21.2363 4.3598 21.7086 4.3598 22.2911C4.3598 22.8736 4.83207 23.3459 5.41459 23.3459H12.7981C13.3806 23.3459 13.8529 22.8736 13.8529 22.2911C13.8529 21.7086 13.3806 21.2363 12.7981 21.2363Z" fill="#FE8326"/>
<path d="M12.7981 17.0171H5.41459C4.83207 17.0171 4.3598 17.4894 4.3598 18.0719C4.3598 18.6544 4.83207 19.1267 5.41459 19.1267H12.7981C13.3806 19.1267 13.8529 18.6544 13.8529 18.0719C13.8529 17.4894 13.3806 17.0171 12.7981 17.0171Z" fill="#FE8326"/>
<path d="M5.41459 12.798H20.1816C20.7641 12.798 21.2364 12.3258 21.2364 11.7433C21.2364 11.1607 20.7641 10.6885 20.1816 10.6885H5.41459C4.83206 10.6885 4.3598 11.1607 4.3598 11.7433C4.3598 12.3258 4.83206 12.798 5.41459 12.798Z" fill="#FE8326"/>
<path d="M36 10.5775C36 10.3785 35.9698 8.61908 34.9452 7.59453C33.9201 6.56942 32.1596 6.53975 31.9619 6.53975C31.9619 6.53975 31.9619 6.53975 31.9619 6.53975C31.9616 6.53975 31.9612 6.53982 31.9609 6.53982C31.6959 6.54003 31.4185 6.64621 31.2161 6.84859C31.2161 6.84866 31.216 6.84866 31.216 6.84873L27.565 10.4328V1.05479C27.565 0.472263 27.0928 0 26.5102 0H23.3459C22.7633 0 22.2911 0.472263 22.2911 1.05479C22.2911 1.6364 21.8179 2.10957 21.2363 2.10957C20.6547 2.10957 20.1815 1.6364 20.1815 1.05479C20.1815 0.472263 19.7092 0 19.1267 0H15.9624C15.3798 0 14.9076 0.472263 14.9076 1.05479C14.9076 1.6364 14.4344 2.10957 13.8528 2.10957C13.2712 2.10957 12.798 1.6364 12.798 1.05479C12.798 0.472263 12.3257 0 11.7432 0H8.57886C7.99634 0 7.52407 0.472263 7.52407 1.05479C7.52407 1.6364 7.05089 2.10957 6.46929 2.10957C5.88768 2.10957 5.4145 1.6364 5.4145 1.05479C5.4145 0.472263 4.94224 0 4.35971 0H1.05472C0.775057 0 0.506719 0.111174 0.308982 0.308912C0.111104 0.50679 0 0.775057 0 1.05479V30.7294C0 33.6375 2.36589 36.0034 5.27393 36.0034H28.6199C30.3647 36.0034 31.7842 34.5838 31.7842 32.839V26.5103C31.7842 25.9278 31.312 25.4555 30.7294 25.4555H27.5651V19.3828C36.2527 10.6952 30.828 16.1434 35.6909 11.3239C35.8923 11.1227 36.0001 10.8458 36 10.5775ZM33.8571 10.1743L31.2194 12.7451C29.6405 11.1662 29.7635 11.2892 29.7277 11.2534L32.3656 8.68237C32.7552 8.73778 33.2331 8.86576 33.4535 9.08614C33.6671 9.29977 33.7996 9.77006 33.8571 10.1743ZM21.0881 22.8763C20.5122 23.4523 19.7993 23.8929 19.0267 24.1504L17.9703 24.5025L18.3225 23.4461C18.58 22.6735 19.0205 21.9606 19.5965 21.3847L28.2361 12.7451C29.815 14.324 29.692 14.2009 29.7278 14.2368C28.7868 15.1777 22.1552 21.8092 21.0881 22.8763ZM29.6747 32.839C29.6747 33.4206 29.2015 33.8938 28.6199 33.8938C28.0383 33.8938 27.5651 33.4206 27.5651 32.839V27.5651H29.6747V32.839ZM25.4555 32.839C25.4555 33.2088 25.5199 33.5637 25.6369 33.8938H5.27393C3.5291 33.8938 2.10957 32.4743 2.10957 30.7294V2.10957H3.48572C3.92099 3.33741 5.09413 4.21915 6.46936 4.21915C7.84459 4.21915 9.01765 3.33741 9.45299 2.10957H10.8693C11.3046 3.33741 12.4777 4.21915 13.8529 4.21915C15.2282 4.21915 16.4012 3.33741 16.8366 2.10957H18.2529C18.6881 3.33741 19.8613 4.21915 21.2365 4.21915C22.6117 4.21915 23.7848 3.33741 24.2201 2.10957H25.4557V12.5422L18.1046 19.893C17.2984 20.6993 16.6816 21.6974 16.3211 22.779L15.3018 25.8368C15.1754 26.2158 15.2741 26.6337 15.5566 26.9162C15.8401 27.1997 16.2583 27.297 16.636 27.171L19.6938 26.1517C20.7756 25.7911 21.7735 25.1744 22.5798 24.3681L25.4556 21.4924C25.4555 23.8733 25.4555 30.4561 25.4555 32.839Z" fill="#FE8326"/>
</svg>
