<svg width="36" height="36" viewBox="0 0 36 36" fill="none" xmlns="http://www.w3.org/2000/svg">
<path d="M18 0C8.07497 0 0 8.07497 0 18C0 27.925 8.07497 36 18 36C27.925 36 36 27.925 36 18C36 8.07497 27.925 0 18 0ZM18 33C13.9137 33 10.208 31.3534 7.50002 28.6942V26.25C7.50002 25.5366 7.81938 25.0774 8.18852 24.5456C8.56863 23.9986 9 23.3782 9 22.5C9 21.0696 7.70871 20.9246 7.01438 20.847C6.51776 20.7913 6.04905 20.7385 5.78025 20.4697C5.57662 20.2661 5.373 19.8963 5.1577 19.5051C4.73013 18.7272 4.15055 17.6984 3.04713 17.0684C3.53222 9.23175 10.0432 3.00002 18 3.00002C18.4117 3.00002 18.8164 3.02913 19.2199 3.06183C19.1377 3.11576 19.0371 3.15239 18.9697 3.21975C18.824 3.36551 18.7442 3.56548 18.75 3.77198C18.7566 3.97779 18.8474 4.17263 19.0012 4.3103C19.2708 4.54978 19.3228 4.67065 19.3331 4.67065C19.3162 4.70651 19.1785 4.94163 18.4109 5.3313C17.1438 5.97361 15.6805 7.28831 15.4629 8.65652C15.3633 9.27759 15.5435 9.85402 15.9697 10.2803C16.1104 10.4209 16.3008 10.5 16.5 10.5C17.5416 10.5 18.3464 10.1148 19.125 9.74271C19.9241 9.36106 20.6792 9 21.75 9C24.6936 9 27 9.65918 27 10.5C27 10.8083 26.904 10.9028 26.8675 10.938C26.499 11.3005 25.2444 11.2771 24.1414 11.2602C23.8492 11.2551 23.5503 11.2499 23.25 11.2499C22.232 11.2499 21.9163 11.1012 21.5508 10.9284C21.1252 10.7277 20.6433 10.4999 19.5 10.4999C18.2637 10.4999 15.9661 10.7233 14.4697 12.2196C13.2458 13.4428 13.3754 14.9061 13.4604 15.8737C13.4802 16.0964 13.5 16.3073 13.5 16.4999C13.5 17.9771 15.0095 18.7499 16.5 18.7499C18.7925 18.7499 20.7745 19.1776 21 19.4999C21 20.3393 21.2498 20.9128 21.4504 21.3727C21.6174 21.7572 21.75 22.0604 21.75 22.4999C21.75 22.8397 21.6943 22.9122 21.5442 23.1056C21.2578 23.4777 21 23.8827 21 24.7499C21 26.3282 22.5198 28.0597 22.6926 28.2523C22.8369 28.412 23.0405 28.4999 23.25 28.4999C23.3122 28.4999 23.3745 28.4926 23.436 28.4765C23.8776 28.3629 27.75 27.2973 27.75 24.7499C27.75 23.9516 27.9982 23.7362 28.3747 23.4096C28.7438 23.0887 29.2499 22.65 29.2499 21.7499C29.2499 21.1486 30.3171 19.5966 31.3059 18.5031C31.4458 18.3485 31.5153 18.142 31.497 17.934C31.4788 17.726 31.3747 17.5348 31.21 17.4073C30.6269 16.9554 29.0171 15.484 28.478 14.0565C28.7835 14.2162 29.1658 14.4762 29.4697 14.7802C29.7195 15.0314 30.0542 15.1515 30.435 15.1362C31.0425 15.1015 31.7641 14.6216 32.448 14.0229C32.7978 15.2918 33 16.6214 33 18C33 26.2712 26.2712 33 18 33Z" fill="#FE8326"/>
</svg>
