<svg width="1866" height="1224" viewBox="0 0 1866 1224" fill="none" xmlns="http://www.w3.org/2000/svg"><path opacity=".05" fill-rule="evenodd" clip-rule="evenodd" d="M1707.71 157.784c.69 0 1.34-.008 1.97-.016 1.42-.017 2.72-.033 4.02.046 1.21.073 1.88-.387 2.51-1.363 4.7-7.231 20.58-31.314 23.87-36.301a64764.52 64764.52 0 0 0 22.29 33.84l.04.063c3.66 5.564 7.34 11.15 11.05 16.778.04-.63.07-29.791.1-55.757v-.059c.01-9.385.02-18.349.03-25.394 0-1.3-.38-1.621-1.65-1.621-18.43.027-36.86.028-55.3.03-7.09 0-14.18.001-21.26.003-.11 0-.22-.004-.33-.008-.45-.017-.95-.035-1.08.163-.39.606-.86 1.175-1.33 1.745-1.19 1.448-2.38 2.9-2.38 4.974v23.07c0 17.087 0 34.174-.04 51.263 0 1.547.41 1.904 1.93 1.904 16.32-.023 49.65.011 65.26.026l8.16.007-3.75-5.694-.09-.138c-7.28-11.043-14.42-21.876-21.65-32.848l-4.01 6.08c-4.21 6.395-8.38 12.72-12.66 19.211h2.09l3.12-.001h.05c3.18-.001 6.35-.003 9.53.008.13.001.26-.007.39-.014.54-.031 1.1-.062 1.49.449 1.15 1.49 2.29 2.989 3.5 4.572.57.757 1.17 1.534 1.78 2.338-11.48.235-22.78.215-34.12.194-5.71-.01-11.44-.021-17.2.001 5.45-8.28 10.86-16.493 16.24-24.676l.05-.072c7.22-10.966 14.4-21.878 21.6-32.825.38.568.74 1.121 1.1 1.662v.001c.85 1.299 1.65 2.526 2.51 3.711.62.855.45 1.474-.07 2.269-8.27 12.561-26.66 40.659-27.76 42.379zm-25.3-52.703c-.9 1.341-1.72 2.587-2.37 3.525-.61.895-.88 1.786-.88 2.88.04 9.419.06 47.959-.01 57.805-.01 1.485.43 1.864 1.84 1.78 1.89-.115 3.81-.155 5.7.007 1.74.147 2.09-.486 2.08-2.125-.05-22.461-.04-67.37-.04-72.231v-.423c-.58.143-3.72 4.863-6.32 8.782zm-5.11 7.998c.06.02.13.039.2.057v.46c-.01 4.371-.02 38.423.03 55.471.01 1.584-.33 2.151-2 2.022-1.87-.143-3.76-.091-5.64-.039l-.61.017c-.93.026-1.28-.236-1.28-1.227.02-11.099.02-22.196.02-33.294v-9.081c0-.493.02-.976.31-1.407 2.93-4.346 5.85-8.689 8.77-13.036l.2.057zM833.206 201.327c.505 0 .986-.006 1.451-.012 1.041-.013 1.999-.025 2.952.033.892.054 1.385-.284 1.851-1.002 3.457-5.318 15.136-23.031 17.555-26.7l16.41 24.917 8.141 12.36c.03-.464.054-21.911.076-41.01.007-6.918.015-13.528.022-18.721 0-.956-.282-1.192-1.214-1.192-13.557.02-27.115.021-40.672.022l-15.643.002c-.074 0-.157-.003-.243-.006-.325-.012-.693-.026-.79.12-.289.446-.633.864-.977 1.283-.874 1.066-1.751 2.134-1.751 3.659-.003 5.656-.003 11.312-.003 16.967v.003c0 12.568-.001 25.134-.027 37.702-.003 1.138.301 1.401 1.417 1.401 12.002-.017 36.522.008 48 .019h.016l5.986.005-2.75-4.172-.006-.008-15.992-24.269-2.945 4.468-.039.059-9.277 14.074h3.875c2.334-.001 4.668-.002 7.002.006.095 0 .192-.005.29-.011.399-.022.808-.045 1.097.33a753.851 753.851 0 0 1 2.569 3.362l.001.001 1.31 1.72c-8.441.173-16.753.158-25.096.143a2133.19 2133.19 0 0 0-12.648.001l11.891-18.068.095-.144c5.307-8.062 10.588-16.085 15.884-24.134.278.418.544.825.804 1.223.624.955 1.213 1.858 1.846 2.73.455.628.334 1.084-.051 1.669a11059.646 11059.646 0 0 0-20.417 31.17zm-13.957-45.223c-.428.105-2.737 3.577-4.653 6.459-.656.986-1.265 1.903-1.738 2.593a3.49 3.49 0 0 0-.648 2.118c.027 6.928.041 35.274-.011 42.516-.008 1.092.32 1.371 1.355 1.309 1.393-.084 2.804-.114 4.192.005 1.279.109 1.536-.357 1.533-1.563-.038-16.521-.031-49.558-.03-53.127v-.31zm-8.41 12.342l.146.042v.338c-.001 3.214-.013 28.261.027 40.799.003 1.165-.246 1.582-1.471 1.487-1.378-.105-2.767-.066-4.153-.028l-.445.012c-.686.019-.946-.173-.943-.902.017-8.164.016-16.325.014-24.488v-6.679c0-.363.016-.718.23-1.035 2.151-3.197 4.3-6.391 6.449-9.588l.146.042zM73.71 69.784c.685 0 1.34-.008 1.972-.016 1.415-.017 2.718-.033 4.014.046 1.212.073 1.882-.387 2.516-1.363 4.7-7.231 20.578-31.314 23.868-36.301l22.287 33.84.042.064L139.46 82.83c.041-.63.073-29.79.102-55.758v-.058c.011-9.385.021-18.349.031-25.394 0-1.3-.383-1.621-1.651-1.621-18.433.027-36.865.028-55.298.03-7.09 0-14.18.001-21.269.003-.1 0-.213-.004-.33-.008-.442-.017-.942-.035-1.073.163-.394.606-.861 1.175-1.329 1.745-1.189 1.448-2.38 2.9-2.38 4.974-.004 7.69-.005 15.38-.005 23.07 0 17.087 0 34.174-.036 51.263-.004 1.547.408 1.904 1.926 1.904 16.319-.023 49.656.01 65.262.026l8.159.007-3.753-5.694-.091-.138c-7.278-11.043-14.418-21.876-21.645-32.848l-4.007 6.08-12.663 19.21h5.264c3.175-.001 6.349-.003 9.523.008.129.001.262-.007.396-.014.541-.03 1.098-.062 1.491.449 1.149 1.49 2.289 2.989 3.494 4.572l.011.014c.572.753 1.16 1.525 1.77 2.324-11.476.235-22.778.215-34.12.194-5.713-.01-11.436-.02-17.197.001L76.284 52.66l.047-.072 21.604-32.825c.377.568.738 1.121 1.092 1.662v.001c.848 1.299 1.65 2.526 2.511 3.711.619.855.453 1.474-.07 2.27-8.27 12.56-26.654 40.658-27.759 42.378zM48.405 17.081a330.25 330.25 0 0 1-2.363 3.525c-.615.895-.888 1.786-.88 2.88.036 9.419.055 47.96-.015 57.805-.011 1.485.434 1.864 1.842 1.78 1.893-.115 3.813-.155 5.699.007 1.739.147 2.088-.486 2.085-2.125-.053-22.46-.042-67.37-.04-72.231v-.423c-.583.143-3.722 4.863-6.328 8.782zm-5.108 7.998c.067.02.133.039.2.057l-.001.46c-.002 4.37-.019 38.423.037 55.47.004 1.585-.335 2.152-2 2.023-1.874-.143-3.762-.09-5.647-.039l-.605.017c-.932.026-1.286-.236-1.282-1.227.023-11.099.021-22.196.02-33.294l-.002-9.08c0-.494.023-.977.314-1.408 2.925-4.346 5.846-8.69 8.767-13.036l.2.057zM1178.9 102.202c.89 0 1.75-.011 2.57-.021 1.85-.023 3.56-.044 5.25.059 1.58.096 2.46-.505 3.29-1.781 6.14-9.45 26.89-40.924 31.19-47.442 9.75 14.805 19.44 29.51 29.2 44.335v.002c4.79 7.262 9.59 14.552 14.43 21.899.05-.824.09-38.929.13-72.864v-.188c.01-12.227.03-23.901.04-33.083 0-1.7-.5-2.118-2.16-2.118-24.09.035-48.18.037-72.27.039-9.26 0-18.53.002-27.79.004-.13 0-.28-.005-.43-.01-.58-.022-1.24-.046-1.41.213-.51.791-1.12 1.535-1.73 2.28-1.56 1.893-3.12 3.791-3.12 6.5v30.149c0 22.332 0 44.664-.05 66.998 0 2.022.54 2.489 2.52 2.489 21.33-.03 64.89.013 85.29.034l10.66.009-4.91-7.461c-9.55-14.489-18.92-28.698-28.4-43.09l-5.25 7.965c-5.5 8.351-10.95 16.61-16.53 25.087h2.73l4.15-.001c4.14-.002 8.29-.003 12.44.011.17.001.34-.009.52-.019.71-.04 1.43-.081 1.95.587 1.5 1.947 2.99 3.904 4.56 5.972v.003l.01.004c.75.989 1.52 2.002 2.32 3.052-15 .307-29.77.281-44.59.254-7.47-.014-14.95-.028-22.48.001 7.15-10.859 14.24-21.63 21.3-32.362l.01-.007c9.43-14.323 18.81-28.576 28.22-42.874.49.743.96 1.466 1.42 2.174 1.11 1.697 2.16 3.3 3.29 4.85.8 1.117.59 1.925-.1 2.965-10.8 16.416-34.83 53.137-36.27 55.386zm-33.07-68.878c-1.17 1.751-2.25 3.38-3.09 4.606-.81 1.17-1.16 2.334-1.15 3.764.05 12.31.07 62.679-.02 75.547-.02 1.94.57 2.435 2.41 2.325 2.47-.15 4.98-.202 7.44.009 2.28.193 2.73-.635 2.73-2.777-.07-29.352-.06-88.037-.05-94.398v-.554c-.76.186-4.87 6.356-8.27 11.478zm-6.68 10.452c.09.025.18.05.26.075v.6c0 5.712-.02 50.217.05 72.496 0 2.07-.44 2.811-2.61 2.643-2.45-.187-4.92-.119-7.38-.051l-.79.022c-1.22.034-1.68-.308-1.68-1.603.03-14.506.03-29.008.03-43.513-.01-3.955-.01-7.911-.01-11.868 0-.645.03-1.275.41-1.839 3.83-5.68 7.64-11.356 11.46-17.036.09.024.18.049.26.074zM1476.45 690.239c5.48-.068 10.53-.13 15.55.175 4.69.286 7.29-1.498 9.74-5.279 18.21-28.007 79.71-121.289 92.45-140.607 28.74 43.643 57.29 86.988 86.08 130.688l.54.828.75 1.138c13.9 21.108 27.86 42.302 41.93 63.654.15-2.439.28-115.319.39-215.875v-.057c.04-36.446.08-71.27.12-98.626 0-5.037-1.48-6.278-6.39-6.278-71.4.103-142.8.109-214.19.116-27.46.002-54.92.004-82.38.012-.4 0-.83-.016-1.28-.033-1.72-.063-3.65-.135-4.16.633-1.53 2.347-3.34 4.551-5.15 6.758-4.6 5.611-9.22 11.237-9.22 19.266-.01 29.786-.01 59.571-.02 89.355 0 66.188 0 132.373-.14 198.566-.01 5.992 1.59 7.376 7.47 7.376 63.2-.089 192.3.04 252.76.1h.02l.4.001c16.6.016 27.94.027 31.2.027l-14.57-22.116c-28.3-42.94-56.06-85.054-84.16-127.708l-15.54 23.584-.07.11c-16.3 24.722-32.41 49.174-48.96 74.268h8.09c4.1 0 8.2-.002 12.3-.004 12.3-.005 24.59-.011 36.89.032.5.003 1.01-.026 1.53-.055 2.1-.119 4.25-.241 5.78 1.739 4.45 5.772 8.86 11.576 13.53 17.709 2.23 2.933 4.52 5.941 6.9 9.057-44.45.911-88.22.831-132.16.751h-.01c-22.12-.041-44.29-.081-66.6.005 21.17-32.173 42.18-64.085 63.11-95.88l.19-.291c27.89-42.371 55.64-84.534 83.47-126.832 1.46 2.2 2.87 4.345 4.24 6.442 3.28 5.028 6.39 9.783 9.72 14.374 2.4 3.31 1.75 5.707-.27 8.789-32.04 48.653-103.24 157.486-107.52 164.149 2.66 0 5.19-.031 7.64-.061zM1370.8 486.163c-3.45 5.191-6.66 10.018-9.15 13.65-2.39 3.467-3.44 6.92-3.41 11.157.14 36.483.21 185.765-.06 223.902-.04 5.75 1.68 7.22 7.13 6.892 7.34-.443 14.77-.6 22.08.028 6.73.571 8.09-1.883 8.07-8.232-.2-87.009-.16-260.995-.15-279.785v-1.63c-2.26.553-14.42 18.837-24.51 34.018zm-19.78 30.978c.25.075.51.15.77.221v1.78c-.01 16.93-.08 148.829.14 214.86.01 6.135-1.3 8.332-7.75 7.833-7.26-.554-14.57-.352-21.87-.15-.78.022-1.56.044-2.34.064-3.61.1-4.98-.913-4.97-4.751.09-42.991.08-85.973.08-128.96-.01-11.725-.01-23.449-.01-35.175 0-1.911.09-3.78 1.21-5.45 11.33-16.836 22.65-33.657 33.97-50.493l.77.221zM997.709 856.784c.686 0 1.341-.008 1.973-.016 1.418-.017 2.718-.033 4.018.046 1.21.073 1.88-.387 2.51-1.363 4.7-7.231 20.58-31.314 23.87-36.301a64764.52 64764.52 0 0 0 22.29 33.84l.04.063c3.66 5.564 7.34 11.15 11.05 16.778.04-.63.07-29.791.1-55.757v-.059c.01-9.385.02-18.349.03-25.394 0-1.301-.38-1.621-1.65-1.621-18.43.027-36.86.028-55.3.03l-21.265.003c-.1 0-.213-.004-.33-.008-.442-.017-.942-.035-1.073.163-.394.606-.861 1.175-1.329 1.745-1.189 1.448-2.381 2.901-2.381 4.974-.003 7.69-.004 15.38-.004 23.07 0 17.087-.001 34.174-.036 51.263-.004 1.547.408 1.904 1.926 1.904 16.319-.023 49.652.011 65.262.026l8.16.007-3.75-5.694-.09-.138c-7.28-11.043-14.42-21.876-21.65-32.848l-4.01 6.08c-4.21 6.395-8.38 12.72-12.66 19.211h2.09l3.12-.001h.05c3.18-.001 6.35-.003 9.53.008.13.001.26-.007.39-.014.54-.031 1.1-.062 1.49.449 1.15 1.49 2.29 2.989 3.5 4.572l.01.014c.57.753 1.16 1.525 1.77 2.324-11.48.235-22.78.215-34.12.194-5.714-.01-11.437-.021-17.198.001 5.449-8.28 10.855-16.493 16.238-24.676l.05-.072c7.22-10.966 14.4-21.878 21.6-32.825.38.568.74 1.121 1.1 1.662v.001c.85 1.299 1.65 2.526 2.51 3.711.62.855.45 1.474-.07 2.269-8.27 12.561-26.656 40.659-27.761 42.379zm-25.303-52.703v.001c-.891 1.34-1.72 2.586-2.363 3.524-.615.895-.888 1.786-.881 2.88.037 9.419.056 47.959-.014 57.805-.011 1.485.434 1.864 1.842 1.78 1.893-.115 3.812-.155 5.699.007 1.738.147 2.088-.486 2.085-2.125-.053-22.461-.042-67.37-.041-72.231v-.423c-.582.143-3.721 4.863-6.327 8.782zm-5.108 7.998l.199.057v.46c-.002 4.371-.018 38.423.037 55.471.004 1.584-.335 2.151-2 2.022-1.874-.143-3.762-.091-5.647-.039l-.605.017c-.932.026-1.286-.236-1.282-1.227.023-11.099.021-22.196.019-33.294l-.001-9.081c0-.493.023-.976.314-1.407 2.925-4.346 5.846-8.689 8.767-13.036l.199.057zM142.531 782.263h.004c8.095-.1 15.551-.192 22.967.26 6.936.422 10.773-2.213 14.399-7.8 26.901-41.379 117.765-179.198 136.591-207.74 42.569 64.643 84.854 128.842 127.488 193.571l.273.414 63.264 96.05c.232-3.605.418-170.455.585-319.047v-.05c.06-53.822.117-105.247.174-145.646 0-7.441-2.193-9.275-9.445-9.275-105.486.152-210.971.162-316.456.171-40.571.003-81.143.007-121.714.019-.577 0-1.222-.024-1.89-.049-2.53-.094-5.392-.2-6.142.934-2.255 3.468-4.928 6.725-7.603 9.984-6.805 8.292-13.627 16.603-13.627 28.465-.02 44.007-.02 88.011-.022 132.014-.003 97.791-.006 195.577-.21 293.374-.02 8.854 2.34 10.898 11.026 10.898 93.386-.132 284.166.059 373.472.148 24.847.025 41.839.042 46.694.042l-21.579-32.742c-41.796-63.419-82.789-125.618-124.288-188.616l-23.002 34.9-.464.705a838305.936 838305.936 0 0 1-71.93 109.128h11.953c5.988 0 11.976-.002 17.964-.005h.207c18.166-.008 36.333-.016 54.499.048.739.004 1.499-.039 2.264-.082 3.097-.176 6.281-.356 8.53 2.569 6.575 8.527 13.101 17.103 19.997 26.164l.002.002c3.297 4.333 6.679 8.777 10.191 13.379-65.673 1.346-130.349 1.228-195.26 1.11-32.692-.06-65.444-.119-98.414.008 31.24-47.468 62.23-94.55 93.106-141.46l.145-.22.039-.06c41.281-62.717 82.359-125.127 123.561-187.736 2.159 3.251 4.228 6.42 6.252 9.518 4.853 7.429 9.441 14.454 14.366 21.238 3.542 4.89 2.593 8.432-.401 12.985-47.329 71.881-152.528 232.677-158.853 242.521 3.926 0 7.67-.046 11.287-.091zm-119.88-351.77c-3.331.816-21.296 27.831-36.21 50.259-5.1 7.669-9.844 14.802-13.523 20.168-3.521 5.122-5.081 10.223-5.039 16.484.21 53.901.316 274.457-.084 330.803-.064 8.495 2.487 10.667 10.54 10.182 10.837-.654 21.82-.886 32.615.042 9.95.843 11.953-2.783 11.932-12.163-.3-128.556-.239-385.628-.232-413.371v-2.404zm-65.44 96.028c.38.111.76.221 1.139.327l-.001 2.629c-.012 25.013-.106 219.887.212 317.444.02 9.065-1.919 12.311-11.448 11.573-10.722-.819-21.53-.519-32.314-.221l-3.462.095c-5.334.147-7.358-1.35-7.337-7.02.133-63.517.122-127.021.111-190.532-.002-17.322-.005-34.645-.005-51.968 0-2.825.126-5.587 1.791-8.053 16.74-24.874 33.458-49.727 50.176-74.601.38.106.759.216 1.138.327zM1407.9 1206.2c.89 0 1.75-.01 2.57-.02 1.85-.02 3.56-.04 5.25.06 1.58.1 2.46-.51 3.29-1.78 6.14-9.45 26.89-40.93 31.19-47.44 9.75 14.8 19.44 29.51 29.2 44.33 4.79 7.27 9.59 14.56 14.43 21.9.05-.82.09-38.93.13-72.86v-.19c.01-12.23.03-23.9.04-33.08 0-1.7-.5-2.12-2.16-2.12-24.09.03-48.18.04-72.27.04h-27.79c-.13 0-.28 0-.43-.01-.58-.02-1.24-.04-1.41.22-.51.79-1.12 1.53-1.73 2.28-1.56 1.89-3.12 3.79-3.12 6.5v30.14c0 22.34 0 44.67-.05 67 0 2.03.54 2.49 2.52 2.49 21.33-.03 64.89.02 85.29.04 5.67 0 9.56.01 10.66.01l-4.91-7.47c-9.55-14.48-18.92-28.69-28.4-43.09l-5.25 7.97c-5.5 8.35-10.95 16.61-16.53 25.09H1435.3c4.14-.01 8.29-.01 12.44.01.17 0 .34-.01.52-.02.71-.04 1.43-.08 1.95.58 1.5 1.95 2.99 3.91 4.56 5.98h.01c.75.99 1.52 2.01 2.32 3.06-15 .3-29.77.28-44.59.25-7.47-.02-14.95-.03-22.48 0 7.15-10.86 14.24-21.63 21.3-32.36l.01-.01c9.43-14.32 18.81-28.57 28.22-42.87.49.74.96 1.46 1.42 2.17 1.11 1.7 2.16 3.3 3.29 4.85.8 1.12.59 1.93-.1 2.97-10.8 16.41-34.83 53.13-36.27 55.38zm-33.07-68.88c-1.17 1.76-2.25 3.38-3.09 4.61-.81 1.17-1.16 2.33-1.15 3.76.05 12.31.07 62.68-.02 75.55-.02 1.94.57 2.44 2.41 2.33 2.47-.15 4.98-.21 7.44.01 2.28.19 2.73-.64 2.73-2.78-.07-29.35-.06-88.04-.05-94.4v-.55c-.76.18-4.87 6.35-8.27 11.47zm-6.68 10.46c.09.02.18.05.26.07v.6c0 5.71-.02 50.22.05 72.5 0 2.07-.44 2.81-2.61 2.64-2.45-.19-4.92-.12-7.38-.05-.27.01-.53.01-.79.02-1.22.03-1.68-.31-1.68-1.6.03-14.51.03-29.01.03-43.51-.01-3.96-.01-7.92-.01-11.87 0-.65.03-1.28.41-1.84 3.83-5.68 7.64-11.36 11.46-17.04.09.03.18.05.26.08zM1818.57 880.166c1.04-.013 1.99-.025 2.94.033.89.054 1.38-.283 1.85-.999 3.44-5.303 15.09-22.965 17.5-26.622 5.48 8.317 10.92 16.576 16.4 24.905l8.08 12.263c.03-.462.06-21.844.08-40.886 0-6.9.01-13.493.02-18.671 0-.954-.28-1.189-1.21-1.189-13.52.02-27.04.021-40.56.022l-15.59.002c-.08 0-.16-.003-.25-.006-.32-.012-.69-.026-.78.12-.29.444-.63.862-.98 1.279-.87 1.063-1.74 2.128-1.74 3.648-.01 5.64-.01 11.279-.01 16.919 0 12.531 0 25.063-.02 37.595-.01 1.135.3 1.397 1.41 1.397 11.97-.017 36.42.007 47.86.019l5.98.005-2.75-4.177c-5.36-8.134-10.62-16.111-15.94-24.19l-2.94 4.466c-3.09 4.687-6.15 9.324-9.28 14.081H1832.5c2.33-.001 4.65-.002 6.98.006.1 0 .19-.005.29-.011.4-.022.81-.045 1.09.33.85 1.092 1.68 2.191 2.57 3.352v.003c.42.554.85 1.123 1.3 1.712-8.41.173-16.7.158-25.02.143-4.19-.008-8.39-.016-12.61.001 4-6.081 7.97-12.112 11.93-18.121l.02-.034c5.29-8.041 10.56-16.041 15.84-24.068.27.417.54.823.8 1.22.62.952 1.21 1.852 1.84 2.721.45.627.33 1.081-.05 1.664-6.07 9.212-19.55 29.818-20.36 31.08.5 0 .98-.006 1.45-.012zm-20.01-38.639c-.65.983-1.26 1.897-1.73 2.585-.45.656-.65 1.31-.64 2.112.02 6.907.04 35.172-.01 42.393-.01 1.089.31 1.367 1.35 1.305 1.38-.084 2.79-.114 4.18.005 1.27.108 1.53-.357 1.52-1.559-.03-16.474-.03-49.418-.02-52.974v-.308c-.43.105-2.73 3.567-4.65 6.441zm-3.74 5.865l.14.042v.337c0 3.206-.01 28.179.03 40.681 0 1.162-.24 1.578-1.47 1.483-1.37-.105-2.75-.066-4.14-.028l-.44.012c-.68.019-.94-.173-.94-.9.02-8.139.02-16.277.01-24.417v-6.659c0-.362.02-.716.23-1.032 2.15-3.188 4.29-6.373 6.43-9.56l.15.041z" fill="#561D7B"/></svg>