<svg width="50" height="50" viewBox="0 0 50 50" fill="none" xmlns="http://www.w3.org/2000/svg"><path d="M0 6.25A6.25 6.25 0 0 1 6.25 0h37.5A6.25 6.25 0 0 1 50 6.25v25a6.25 6.25 0 0 1-6.25 6.25H13.794c-.829 0-1.624.33-2.21.916L2.67 47.33A1.563 1.563 0 0 1 0 46.228V6.25zm10.938 3.125a1.563 1.563 0 0 0 0 3.125h28.124a1.563 1.563 0 0 0 0-3.125H10.939zm0 7.813a1.563 1.563 0 1 0 0 3.125h28.124a1.563 1.563 0 0 0 0-3.125H10.939zm0 7.812a1.563 1.563 0 1 0 0 3.125h15.624a1.563 1.563 0 0 0 0-3.125H10.938z" fill="#561D7B"/></svg>