<svg width="100" height="100" viewBox="0 0 100 100" fill="none" xmlns="http://www.w3.org/2000/svg"><g clip-path="url(#a)" fill="#FE8326"><path d="M47.115 74.002a1.691 1.691 0 0 0-2.364.362l-.208.284a1.69 1.69 0 0 0 2.722 2.005l.212-.288c.552-.752.39-1.81-.362-2.363z"/><path d="M47.556 90.086l-4.348-7.906 4.06-5.53a1.69 1.69 0 1 0-2.726-2.001l-4.699 6.4a1.69 1.69 0 0 0-.119 1.815l4.87 8.852a1.69 1.69 0 1 0 2.962-1.63zM60.157 81.049l-4.68-6.374a1.691 1.691 0 1 0-2.726 2.002l4.04 5.503-4.318 7.853a1.69 1.69 0 0 0 2.963 1.63l4.84-8.798a1.691 1.691 0 0 0-.119-1.816zM62.836 54.48a1.69 1.69 0 0 0-1.745.104 26.942 26.942 0 0 0-2.774 2.18c-4.55 4.114-8.873 3.558-9.042 3.533a1.652 1.652 0 0 0-.308-.02c-1.799.046-5.04-1.597-8.47-4.29a27.651 27.651 0 0 0-1.6-1.168 1.69 1.69 0 0 0-2.637 1.402v5.8a1.691 1.691 0 0 0 .78 1.424l11.99 8.011.005.004.032.021a1.69 1.69 0 0 0 1.886-.012l.017-.011.02-.014 11.96-7.992a1.69 1.69 0 0 0 .79-1.431v-6.045a1.69 1.69 0 0 0-.904-1.497zm-2.477 6.636L50 68.038l-10.358-6.922v-1.538c2.522 1.833 6.232 4.082 9.257 4.081h.02c1.015.113 6.193.418 11.44-4.185v1.642z"/><path d="M51.668 69.794a1.69 1.69 0 0 0-3.03-.723l-3.887 5.293a1.69 1.69 0 1 0 2.726 2.001l3.866-5.265a1.688 1.688 0 0 0 .325-1.306zM75.758 15.287c-.033-.264-.825-5.98-6.206-8.235.156-1.004.14-2.294-.497-3.55C68.198 1.815 66.507.716 64.03.234a1.685 1.685 0 0 0-.322-.03H41.014C31.8.203 24.303 7.7 24.303 16.913v8.905c0 2.32.791 4.582 2.227 6.37.712.886 1.588 2.434 1.72 4.774a1.69 1.69 0 1 0 3.379-.096V25.258c1.148-4.748 5.066-5.672 5.74-5.797h7.34c.864 0 1.713-.131 2.524-.392 1.396-.447 3.61-1.271 5.222-1.883a4.901 4.901 0 0 1 3.362-.043l7.858 2.759c3.929 1.45 4.63 4.898 4.717 5.44v13.933a1.69 1.69 0 0 0 3.363.25c.007-.044.682-4.405 2.859-7.896a7.577 7.577 0 0 0 1.158-4.008v-12.12c0-.071-.005-.143-.014-.213zM72.39 27.62c0 .756-.213 1.505-.617 2.171v-4.565c0-.06-.003-.122-.01-.182-.026-.246-.725-6.04-6.933-8.32l-.023-.009-7.87-2.763a8.281 8.281 0 0 0-5.683.073c-2.257.857-4.005 1.488-5.054 1.824-.477.153-.979.231-1.491.231h-7.477c-.072 0-.145.005-.217.014-.286.037-7.03.996-8.727 8.602a1.69 1.69 0 0 0-.04.369v3.48a6.871 6.871 0 0 1-.563-2.726v-8.904c0-7.35 5.98-13.33 13.33-13.33h22.522c.932.199 2.065.606 2.495 1.436.527 1.015-.073 2.412-.073 2.413a1.69 1.69 0 0 0 1.134 2.363c4.304 1.036 5.182 5.164 5.297 5.832V27.62z"/><path d="M71.764 25.044c-.027-.246-.725-6.04-6.933-8.32l-.023-.009-7.87-2.762a8.291 8.291 0 0 0-5.684.071c-2.257.858-4.004 1.489-5.053 1.825a4.88 4.88 0 0 1-1.492.23h-7.477c-.072 0-.145.005-.217.015-.286.037-7.03.996-8.727 8.602a1.69 1.69 0 0 0-.04.368V39.636c.011.505.368 12.428 8.607 17.881l.042.03.108.075c.47.318.941.662 1.403 1.024 2.4 1.885 6.923 5.014 10.49 5.014h.02c.194.02.54.05 1.01.05 2.021 0 6.335-.53 10.656-4.437a23.574 23.574 0 0 1 2.425-1.905l.126-.089.125-.086c2.748-1.846 7.508-6.609 8.507-17.768.005-.05.007-.1.007-.15V25.225c0-.06-.004-.121-.01-.182zm-3.372 14.154c-.921 10.07-5.212 13.975-7.017 15.187-.064.043-.127.088-.19.132l-.095.066a26.942 26.942 0 0 0-2.773 2.182c-4.533 4.098-8.842 3.56-9.053 3.53a1.698 1.698 0 0 0-.298-.018c-1.798.047-5.04-1.597-8.47-4.29a27.573 27.573 0 0 0-1.599-1.167l-.041-.03a4.473 4.473 0 0 0-.13-.089c-6.647-4.4-7.082-14.697-7.097-15.127V25.258c1.152-4.765 5.095-5.679 5.737-5.797h7.343c.864 0 1.713-.132 2.524-.392 1.396-.447 3.61-1.271 5.222-1.883a4.901 4.901 0 0 1 3.362-.043l7.859 2.759c3.928 1.45 4.63 4.898 4.716 5.44v13.856zM51.512 69.316a1.691 1.691 0 0 0-2.875-.244l-4.05 5.516a1.69 1.69 0 0 0 2.724 2.004l4.05-5.496c.214-.29.33-.662.33-1.023 0-.262-.062-.522-.179-.757zM51.62 96.538a1.69 1.69 0 0 0-2.362-.079l-.387.354a1.69 1.69 0 0 0-.335 2.072l.012.02a1.69 1.69 0 0 0 2.672.372l.374-.375c.65-.65.662-1.7.026-2.364z"/><path d="M51.129 96.813l-.387-.354a1.69 1.69 0 0 0-2.336 2.444l.375.375a1.69 1.69 0 0 0 2.678-.383l.011-.021a1.692 1.692 0 0 0-.341-2.061z"/><path d="M51.157 96.84l-.002-.003a1.69 1.69 0 0 0-2.307-.002l-.005.004a1.69 1.69 0 0 0-.053 2.448l.018.018c.33.328.76.492 1.192.492.433 0 .865-.165 1.195-.495l.018-.018a1.69 1.69 0 0 0-.056-2.445zM50.548 68.436a1.696 1.696 0 0 0-1.894.635 1.688 1.688 0 0 0 1.38 2.667 1.69 1.69 0 0 0 1.694-1.692v-.004c0-.735-.479-1.383-1.18-1.606z"/><path d="M51.374 69.057l-.015-.02a1.69 1.69 0 0 0-3.05 1.006v.028a1.69 1.69 0 0 0 1.695 1.684 1.691 1.691 0 0 0 1.37-2.698z"/><path d="M70.113 63.746a1.69 1.69 0 0 0-1.01-.993l-6.483-2.324a1.69 1.69 0 0 0-1.51.185l-12.012 8.027-.01.006.943 1.403-.964-1.388a1.69 1.69 0 0 0-.43 2.411l8.794 11.977a1.69 1.69 0 0 0 2.845-.186l9.737-17.705a1.69 1.69 0 0 0 .1-1.413zM58.59 78.914l-6.18-8.418 9.871-6.597 3.815 1.368-7.506 13.647z"/><path d="M51.666 69.78a1.69 1.69 0 0 0-.723-1.112L38.89 60.615a1.692 1.692 0 0 0-1.51-.186l-6.483 2.324a1.69 1.69 0 0 0-.911 2.406l9.738 17.705a1.691 1.691 0 0 0 2.844.186l4.699-6.4a.514.514 0 0 0 .011-.015l4.084-5.563c.273-.371.382-.838.303-1.292zm-7.123 4.868l-.013.017-3.12 4.249-7.505-13.647 3.815-1.368 9.871 6.597-3.049 4.152zM99.916 92.609l-2.18-13.171a11.658 11.658 0 0 0-7.529-9.05l-21.1-7.633a1.69 1.69 0 0 0-2.088 2.344l4.405 8.835-4.323.067a1.69 1.69 0 0 0-1.471 2.475l1.773 3.385-18.146 16.6a1.908 1.908 0 0 0-.054.051l-.375.375a1.69 1.69 0 0 0-.287 2.006l.013.024c.297.542.865.88 1.483.88h43.784a6.167 6.167 0 0 0 4.712-2.183 6.166 6.166 0 0 0 1.383-5.005zm-3.961 2.818a2.794 2.794 0 0 1-2.134.988H54.316l16.33-14.938a1.69 1.69 0 0 0 .357-2.032L69.9 77.34l4.263-.066a1.69 1.69 0 0 0 1.487-2.445l-3.718-7.456 17.126 6.196A8.274 8.274 0 0 1 94.4 79.99l2.181 13.17a2.793 2.793 0 0 1-.626 2.267z"/><path d="M51.172 96.853l-.02-.018a1.69 1.69 0 0 0-2.333.061l-.018.018a1.691 1.691 0 0 0 1.2 2.883h.036a1.69 1.69 0 0 0 1.135-2.944z"/><path d="M51.119 96.804a1.689 1.689 0 0 0-2.614.443l-.011.022a1.69 1.69 0 0 0 .267 1.988l.006.007a1.686 1.686 0 0 0 2.354.073l.018-.016c.154-.14.28-.308.373-.494a1.71 1.71 0 0 0-.393-2.023z"/><path d="M51.192 96.907l-.007-.007-.014-.014-.375-.374a1.314 1.314 0 0 0-.054-.052L32.597 79.861l1.773-3.385A1.69 1.69 0 0 0 32.9 74l-4.323-.067 4.405-8.835a1.691 1.691 0 0 0-2.088-2.344l-21.1 7.634a11.659 11.659 0 0 0-7.529 9.049l-2.18 13.17a6.168 6.168 0 0 0 1.383 5.006 6.17 6.17 0 0 0 4.712 2.183H50a1.69 1.69 0 0 0 1.192-2.89zM6.18 96.415c-.824 0-1.602-.36-2.134-.988a2.793 2.793 0 0 1-.626-2.266L5.6 79.99a8.274 8.274 0 0 1 5.343-6.423l17.126-6.196-3.718 7.456a1.69 1.69 0 0 0 1.487 2.445l4.263.066-1.103 2.106a1.69 1.69 0 0 0 .357 2.032l16.33 14.938H6.18z"/><path d="M55.755 76.085a1.69 1.69 0 0 0-.278-1.41l-4.114-5.604a1.686 1.686 0 0 0-1.89-.595c-.374.123-.683.37-.888.688l-4.04 5.48a1.688 1.688 0 0 0-.028 1.972l1.72 2.47-1.832 11.55c-.059.371.008.75.188 1.08l3.926 7.137a1.69 1.69 0 0 0 2.963 0l3.954-7.19c.138-.25.21-.53.21-.815 0-.09-.008-.178-.021-.266L53.8 79.086l1.701-2.443a1.71 1.71 0 0 0 .253-.558zM50 94.53l-2.165-3.936 1.849-11.65a1.69 1.69 0 0 0-.283-1.231l-1.417-2.035 2.021-2.742 2.031 2.766-1.4 2.01c-.249.359-.35.8-.282 1.231l1.84 11.598L50 94.53z"/></g><defs><clipPath id="a"><path fill="#fff" d="M0 0h100v100H0z"/></clipPath></defs></svg>