<svg width="100" height="100" viewBox="0 0 100 100" fill="none" xmlns="http://www.w3.org/2000/svg"><g clip-path="url(#a)" fill="#FE8326"><path d="M51.578 95.351l-24.17-63.098a1.69 1.69 0 0 0-2.9-.45 9.649 9.649 0 0 0-2.394-2.39 9.562 9.562 0 0 0 2.391-2.392 1.691 1.691 0 0 0 2.904-.447l5.407-14.134a1.69 1.69 0 0 0-1.579-2.295H14.438c-.542 0-1.05.26-1.369.698L.322 28.422a1.69 1.69 0 0 0 0 1.985l48.31 66.542a1.69 1.69 0 0 0 2.946-1.598zM3.78 29.413L15.3 13.526h13.48l-2.788 7.29a1.69 1.69 0 0 0-3.177.806 6.108 6.108 0 0 1-6.102 6.101 1.69 1.69 0 0 0 0 3.382c1.629 0 3.164.637 4.321 1.795a6.048 6.048 0 0 1 1.78 4.306 1.69 1.69 0 0 0 3.179.804l17.84 46.574L3.78 29.414z"/><path d="M99.892 28.82a1.75 1.75 0 0 0-.257-.457L88.863 13.508a1.69 1.69 0 0 0-2.641-.121c-.236.27-.456.551-.658.843a9.375 9.375 0 0 0-1.09-1.293 9.377 9.377 0 0 0-6.72-2.792h-8.991a1.69 1.69 0 0 0-1.579 2.295l6.501 16.975L48.421 95.35a1.69 1.69 0 0 0 2.947 1.598l48.25-66.463a1.692 1.692 0 0 0 .274-1.665zM56.17 84.578L77.075 30.02a1.692 1.692 0 0 0-.017-1.25L71.22 13.527h6.534c1.641 0 3.174.635 4.328 1.801a6.021 6.021 0 0 1 1.789 4.315 1.69 1.69 0 0 0 3.381 0c0-.718.126-1.425.368-2.089l8.599 11.857-40.05 55.167z"/><path d="M77.077 28.805l-6.732-17.567a1.691 1.691 0 0 0-1.579-1.086H50.152a1.711 1.711 0 0 0-.152-.007H31.237c-.7 0-1.329.432-1.579 1.087L24.25 25.366a1.69 1.69 0 0 0 .173 1.542 9.608 9.608 0 0 0 2.467 2.504 9.473 9.473 0 0 0-2.464 2.503 1.69 1.69 0 0 0-.175 1.548l24.17 63.098a1.69 1.69 0 0 0 3.168-.028l25.488-66.519c.149-.389.149-.82 0-1.21zM50 91.23L27.747 33.138a6.091 6.091 0 0 1 4.55-2.033 1.69 1.69 0 0 0 0-3.381 6.075 6.075 0 0 1-4.55-2.036l4.654-12.162h17.446c.05.005.101.007.153.007h17.604l6.083 15.877L50 91.23z"/><path d="M32.297 27.723a6.075 6.075 0 0 1-4.321-1.796 6.093 6.093 0 0 1-1.78-4.305 1.69 1.69 0 0 0-3.381 0 6.108 6.108 0 0 1-6.102 6.101 1.69 1.69 0 0 0 0 3.382c1.629 0 3.164.637 4.322 1.795a6.047 6.047 0 0 1 1.78 4.306 1.69 1.69 0 0 0 3.38 0c0-1.217.36-2.394 1.038-3.406a6.09 6.09 0 0 1 5.064-2.695 1.69 1.69 0 0 0 0-3.382zm-7.79 4.076a9.638 9.638 0 0 0-2.391-2.386 9.569 9.569 0 0 0 2.386-2.388 9.603 9.603 0 0 0 2.388 2.387 9.478 9.478 0 0 0-2.384 2.387zM93.353 10.145a6.074 6.074 0 0 1-4.32-1.796 6.047 6.047 0 0 1-1.78-4.305 1.69 1.69 0 0 0-3.382 0c0 3.364-2.744 6.101-6.117 6.101a1.69 1.69 0 0 0 0 3.381c1.642 0 3.174.636 4.328 1.802a6.02 6.02 0 0 1 1.79 4.315 1.69 1.69 0 0 0 3.38 0 6.118 6.118 0 0 1 6.101-6.117 1.69 1.69 0 0 0 0-3.38zm-7.131 3.242c-.236.27-.456.551-.658.843a9.381 9.381 0 0 0-1.091-1.293 9.464 9.464 0 0 0-1.308-1.104 9.558 9.558 0 0 0 2.391-2.388 9.614 9.614 0 0 0 2.398 2.394 9.533 9.533 0 0 0-1.732 1.548zM50 10.145a1.69 1.69 0 0 0-1.69 1.69v84.12a1.69 1.69 0 0 0 3.38 0v-84.12a1.69 1.69 0 0 0-1.69-1.69z"/><path d="M16.713 27.724H1.691a1.69 1.69 0 0 0 0 3.38h15.022a1.69 1.69 0 0 0 0-3.38zM98.306 27.724h-66.01a1.69 1.69 0 0 0 0 3.38h66.01a1.69 1.69 0 0 0 0-3.38z"/></g><defs><clipPath id="a"><path fill="#fff" d="M0 0h100v100H0z"/></clipPath></defs></svg>