<svg width="100" height="100" viewBox="0 0 100 100" fill="none" xmlns="http://www.w3.org/2000/svg"><path d="M60.545 44.498c5.781-3.697 10.566-8.486 13.84-13.85 3.188-5.226 4.921-10.832 5.17-16.683h.132a4.595 4.595 0 0 0 4.59-4.59V4.687a1.465 1.465 0 0 0-1.465-1.464H17.189a1.465 1.465 0 0 0-1.465 1.465v4.687a4.595 4.595 0 0 0 4.59 4.59h.132c.248 5.85 1.982 11.457 5.17 16.683 3.274 5.364 8.06 10.153 13.84 13.85a6.535 6.535 0 0 1 0 11.005c-5.781 3.696-10.566 8.485-13.84 13.85-3.188 5.226-4.923 10.832-5.17 16.684a4.79 4.79 0 0 0-4.722 4.783v4.493a1.465 1.465 0 0 0 1.464 1.464h65.626a1.465 1.465 0 0 0 1.464-1.465v-4.687a4.595 4.595 0 0 0-4.59-4.59h-.132c-.248-5.85-1.982-11.457-5.17-16.683-3.274-5.364-8.06-10.153-13.84-13.85a6.535 6.535 0 0 1 0-11.005zM18.652 9.375V6.152h62.696v3.223a1.662 1.662 0 0 1-1.66 1.66H20.312a1.662 1.662 0 0 1-1.66-1.66zm62.696 81.25v3.223H18.652V90.82a1.858 1.858 0 0 1 1.856-1.855h59.18a1.662 1.662 0 0 1 1.66 1.66zm-50.816-4.59c1.92-3.047 6.686-5.9 13.514-8.026 2.62-.815 4.652-1.98 5.954-3.387 1.302 1.406 3.333 2.572 5.954 3.387 6.828 2.125 11.593 4.98 13.514 8.026H30.532zM54.605 50a9.419 9.419 0 0 0 4.361 7.971c10.77 6.885 17.135 17.048 17.655 28.064h-3.88c-1.752-4.34-7.334-8.152-15.917-10.823-2.921-.91-4.952-2.327-5.433-3.793a1.465 1.465 0 0 0-2.784 0c-.48 1.466-2.511 2.884-5.432 3.793-8.583 2.67-14.165 6.483-15.918 10.823H23.38c.52-11.016 6.886-21.18 17.655-28.064a9.465 9.465 0 0 0 0-15.942c-10.77-6.885-17.135-17.049-17.655-28.064H76.62c-.52 11.015-6.885 21.18-17.654 28.064A9.417 9.417 0 0 0 54.606 50z" fill="#FE8326"/><path d="M69.984 24.242a1.465 1.465 0 0 0-1.253-.707H31.27a1.463 1.463 0 0 0-1.297 2.146c2.758 5.254 7.201 9.94 12.85 13.551a12.756 12.756 0 0 1 5.73 8.725 1.465 1.465 0 0 0 2.894 0 12.756 12.756 0 0 1 5.73-8.725c5.649-3.611 10.092-8.297 12.85-13.551a1.465 1.465 0 0 0-.043-1.439zM55.6 36.764a15.723 15.723 0 0 0-5.6 6.225 15.72 15.72 0 0 0-5.6-6.225c-4.43-2.832-8.047-6.36-10.582-10.3h32.364c-2.535 3.94-6.153 7.467-10.582 10.3zM50 51.66a1.465 1.465 0 0 0-1.465 1.465v1.56a1.465 1.465 0 1 0 2.93 0v-1.56A1.465 1.465 0 0 0 50 51.66zM50 59.473a1.465 1.465 0 0 0-1.465 1.465v1.56a1.465 1.465 0 1 0 2.93 0v-1.56A1.465 1.465 0 0 0 50 59.472z" fill="#FE8326"/></svg>