<svg width="100" height="100" viewBox="0 0 100 100" fill="none" xmlns="http://www.w3.org/2000/svg"><g clip-path="url(#a)" fill="#FE8326"><path d="M90.024 32.763H72.551l-1.814-5.67a1.69 1.69 0 0 0-3.252.113l-3.941 16.1-5.55-18.98a1.69 1.69 0 0 0-3.08-.38L49.74 32.76h-8.944a1.69 1.69 0 0 0 0 3.381h9.912c.6 0 1.154-.317 1.458-.834l3.683-6.274 6.217 21.264a1.69 1.69 0 0 0 3.265-.072l4.013-16.393.364 1.136a1.69 1.69 0 0 0 1.61 1.175h18.706a1.69 1.69 0 0 0 .001-3.381z"/><path d="M89.895 10.102C83.38 3.588 74.719 0 65.507 0c-9.212 0-17.874 3.588-24.388 10.102C29.166 22.056 27.7 40.896 37.454 54.52l-2.227 2.227c-1.63-1.095-4.14-2.355-5.745-.749l-3.615 3.615a1.69 1.69 0 0 0 0 2.391L37.994 74.13c.33.33.763.495 1.196.495.432 0 .865-.165 1.194-.495L44 70.515c1.605-1.606.345-4.116-.75-5.745l2.228-2.227C59.1 72.297 77.94 70.83 89.895 58.878c6.514-6.514 10.102-15.176 10.102-24.388 0-9.213-3.588-17.874-10.102-24.388zm-2.39 46.385C76.401 67.589 58.714 68.66 46.36 58.98a1.69 1.69 0 0 0-2.238.136L39.838 63.4a1.69 1.69 0 0 0-.145 2.225c1.119 1.455 1.531 2.362 1.647 2.767l-2.15 2.15-9.737-9.735 2.151-2.151c.404.116 1.311.528 2.766 1.647a1.69 1.69 0 0 0 2.226-.145l4.285-4.285a1.69 1.69 0 0 0 .135-2.238c-9.68-12.354-8.609-30.041 2.494-41.143C49.385 6.617 57.197 3.38 65.507 3.38c8.309 0 16.12 3.236 21.996 9.112 5.876 5.876 9.112 13.688 9.112 21.997s-3.235 16.121-9.11 21.997z"/><path d="M84.301 15.696c-5.012-5.012-11.687-7.773-18.794-7.772-7.107 0-13.781 2.76-18.794 7.773-5.012 5.012-7.773 11.687-7.773 18.793 0 7.107 2.761 13.781 7.774 18.793 5.182 5.182 11.987 7.773 18.794 7.773 6.805 0 13.612-2.591 18.793-7.772 10.363-10.363 10.363-27.225 0-37.588zM81.91 50.893c-9.043 9.044-23.76 9.044-32.805 0-4.373-4.374-6.782-10.2-6.782-16.403 0-6.204 2.408-12.029 6.782-16.403 4.374-4.373 10.2-6.782 16.403-6.782 6.204 0 12.03 2.408 16.403 6.782 4.374 4.373 6.783 10.199 6.783 16.403 0 6.204-2.41 12.03-6.784 16.403zM40.384 71.739l-5.275-5.276-6.851-6.85a1.69 1.69 0 0 0-2.39 0L.8 84.677c-.373.374-.815 1.04-.797 2.088.056 3.287 4.957 8.028 5.939 8.945C8.217 97.836 11.086 100 13.329 100c.748 0 1.426-.241 1.99-.805L40.384 74.13c.66-.66.66-1.73 0-2.391zM13.138 96.595c-.635-.128-2.372-1.005-4.888-3.355-3.215-3.003-4.686-5.524-4.85-6.378l23.663-23.663 9.735 9.736-23.66 23.66z"/></g><defs><clipPath id="a"><path fill="#fff" d="M0 0h100v100H0z"/></clipPath></defs></svg>