<svg width="100" height="100" viewBox="0 0 100 100" fill="none" xmlns="http://www.w3.org/2000/svg"><path d="M85.355 14.645C75.91 5.2 63.355 0 50 0 36.644 0 24.088 5.2 14.645 14.645 5.2 24.087 0 36.645 0 50c0 13.355 5.201 25.912 14.645 35.355C24.087 94.8 36.645 100 50 100c13.355 0 25.91-5.201 35.355-14.645C94.799 75.911 100 63.355 100 50c0-13.355-5.201-25.912-14.645-35.355zM50 96.618C24.294 96.618 3.38 75.706 3.38 50 3.381 24.294 24.294 3.38 50 3.38S96.619 24.294 96.618 50c0 25.706-20.912 46.618-46.618 46.618z" fill="#FE8326"/><path d="M50.217 9C27.49 9 9 27.49 9 50.217c0 22.726 18.49 41.216 41.217 41.216 22.726 0 41.216-18.49 41.216-41.217C91.433 27.49 72.943 9 50.217 9zm0 79.052c-20.863 0-37.836-16.973-37.836-37.835 0-20.863 16.973-37.835 37.836-37.835 20.862 0 37.835 16.973 37.835 37.835 0 20.862-16.973 37.835-37.835 37.835z" fill="#FE8326"/><path fill-rule="evenodd" clip-rule="evenodd" d="M35 26h31v3H35v-3zm0 5h31v6H53v38h-6V37H35v-6z" fill="#FE8326"/></svg>