<svg width="36" height="36" viewBox="0 0 36 36" fill="none" xmlns="http://www.w3.org/2000/svg"><path d="M2.702 31.418c.82-.496 1.604-.973 2.358-1.437 1.273.537 6.018 2.412 10.186 2.412.493 0 .98-.026 1.45-.084 3.603-.444 9.274-3.403 11.186-6.554l.94-1.55L27.02 24a17.868 17.868 0 0 0-.454-.043c1.67-1.546 2.698-3.279 4.045-5.55l.01-.016c1.903-3.21 2.618-7.7 3.248-11.661.133-.836.259-1.626.39-2.363l.24-1.35-1.37-.015c-4.59-.048-10.58 1.39-14.57 3.5-2.93 1.55-4.994 2.985-6.812 5.545-.1-.412-.18-.719-.204-.808l-.57-2.182-1.445 1.732c-.153.183-3.752 4.516-5.048 7.63-1.778 4.268-1.232 7.861-.738 9.647-.716.44-1.462.893-2.243 1.365l1.202 1.988zm2.95-5.728c-.229-2.133.098-4.28.973-6.38.668-1.605 2.11-3.68 3.219-5.16.1.485.172.906.185 1.146l.232 4.274 1.96-3.806c1.8-3.498 3.466-5.116 7.425-7.21 3.242-1.715 8.113-2.983 12.092-3.199-.054.329-.107.665-.162 1.009-.598 3.756-1.275 8.013-2.953 10.841l-.01.016c-1.87 3.157-2.902 4.896-5.84 6.669l-3.157 1.904 3.678.249c.277.018.725.05 1.211.084-2.165 1.9-5.781 3.592-8.093 3.877-2.906.357-6.68-.765-8.889-1.56 6.181-3.926 10.312-7.17 15.828-13.198l-1.714-1.568c-5.51 6.023-9.455 9.093-15.815 13.096-.066-.32-.126-.682-.17-1.084z" fill="#FE8326"/></svg>