<svg width="36" height="37" viewBox="0 0 36 37" fill="none" xmlns="http://www.w3.org/2000/svg"><path d="M12.798 25.456H5.415a1.055 1.055 0 1 0 0 2.11h7.383a1.055 1.055 0 1 0 0-2.11zM12.798 21.236H5.415a1.055 1.055 0 0 0 0 2.11h7.383a1.055 1.055 0 0 0 0-2.11zM12.798 17.017H5.415a1.055 1.055 0 0 0 0 2.11h7.383a1.055 1.055 0 0 0 0-2.11zM5.415 12.798h14.767a1.055 1.055 0 1 0 0-2.11H5.415a1.055 1.055 0 1 0 0 2.11z" fill="#FE8326"/><path d="M36 10.578c0-.2-.03-1.959-1.055-2.983C33.92 6.569 32.16 6.54 31.962 6.54h-.001c-.265 0-.542.106-.745.309l-3.651 3.584V1.055C27.565.472 27.093 0 26.51 0h-3.164c-.583 0-1.055.472-1.055 1.055a1.056 1.056 0 0 1-2.11 0C20.181.472 19.71 0 19.128 0h-3.165c-.582 0-1.054.472-1.054 1.055a1.056 1.056 0 0 1-2.11 0C12.798.472 12.326 0 11.743 0H8.58c-.583 0-1.055.472-1.055 1.055a1.056 1.056 0 0 1-2.11 0C5.415.472 4.943 0 4.36 0H1.055A1.055 1.055 0 0 0 0 1.055v29.674a5.28 5.28 0 0 0 5.274 5.274H28.62a3.168 3.168 0 0 0 3.164-3.164V26.51c0-.582-.472-1.055-1.055-1.055h-3.164v-6.072c8.688-8.688 3.263-3.24 8.126-8.06.201-.2.31-.477.309-.745zm-2.143-.404l-2.638 2.571-1.491-1.492 2.638-2.57c.39.055.867.183 1.087.403.214.214.347.684.404 1.088zM21.088 22.876a5.3 5.3 0 0 1-2.061 1.274l-1.057.353.353-1.057a5.3 5.3 0 0 1 1.273-2.061l8.64-8.64 1.492 1.492-8.64 8.64zm8.587 9.963a1.056 1.056 0 0 1-2.11 0v-5.274h2.11v5.274zm-4.22 0c0 .37.065.725.182 1.055H5.274a3.168 3.168 0 0 1-3.164-3.165V2.11h1.376a3.17 3.17 0 0 0 2.983 2.11 3.17 3.17 0 0 0 2.984-2.11h1.416a3.17 3.17 0 0 0 2.984 2.11 3.17 3.17 0 0 0 2.984-2.11h1.416a3.17 3.17 0 0 0 2.983 2.11 3.17 3.17 0 0 0 2.984-2.11h1.236v10.433l-7.351 7.351a7.422 7.422 0 0 0-1.784 2.886l-1.02 3.058a1.055 1.055 0 0 0 1.335 1.334l3.058-1.02a7.42 7.42 0 0 0 2.886-1.783l2.876-2.876V32.84z" fill="#FE8326"/></svg>