<svg width="36" height="36" viewBox="0 0 36 36" fill="none" xmlns="http://www.w3.org/2000/svg"><path d="M18 0C8.075 0 0 8.075 0 18s8.075 18 18 18 18-8.075 18-18S27.925 0 18 0zm0 33a14.945 14.945 0 0 1-10.5-4.306V26.25c0-.713.32-1.173.689-1.704.38-.547.811-1.168.811-2.046 0-1.43-1.291-1.575-1.986-1.653-.496-.056-.965-.109-1.234-.377-.203-.204-.407-.574-.622-.965-.428-.778-1.007-1.807-2.11-2.437C3.531 9.232 10.042 3 18 3c.412 0 .816.03 1.22.062-.082.054-.183.09-.25.158A.752.752 0 0 0 19 4.31c.27.24.322.36.332.36-.017.037-.154.272-.922.661-1.267.643-2.73 1.957-2.948 3.326-.1.62.08 1.197.507 1.623.14.14.33.22.53.22 1.042 0 1.846-.385 2.625-.757.8-.382 1.554-.743 2.625-.743 2.944 0 5.25.66 5.25 1.5 0 .308-.096.403-.133.438-.368.362-1.623.34-2.726.322-.292-.005-.59-.01-.891-.01-1.018 0-1.334-.149-1.7-.322-.425-.2-.907-.428-2.05-.428-1.236 0-3.534.223-5.03 1.72-1.224 1.223-1.095 2.686-1.01 3.654.02.222.04.433.04.626 0 1.477 1.51 2.25 3 2.25 2.293 0 4.274.428 4.5.75 0 .84.25 1.413.45 1.873.167.384.3.687.3 1.127 0 .34-.056.412-.206.606-.286.372-.544.777-.544 1.644 0 1.578 1.52 3.31 1.693 3.502a.751.751 0 0 0 .743.225c.442-.114 4.314-1.18 4.314-3.727 0-.798.248-1.014.625-1.34.369-.321.875-.76.875-1.66 0-.601 1.067-2.153 2.056-3.247a.75.75 0 0 0-.096-1.096c-.583-.452-2.193-1.923-2.732-3.35.305.16.688.42.992.723.25.251.584.372.965.356.608-.034 1.33-.514 2.013-1.113A14.93 14.93 0 0 1 33 18c0 8.271-6.729 15-15 15z" fill="#FE8326"/></svg>